<mxfile host="app.diagrams.net" modified="2023-01-18T20:50:13.823Z" agent="5.0 (Macintosh; Intel Mac OS X 10_15_7) AppleWebKit/537.36 (KHTML, like Gecko) Chrome/109.0.0.0 Safari/537.36" etag="QnLp0aAqFjY2u2epxjht" version="20.8.4" type="github" pages="2">
  <diagram id="4ttkeWYAClYkD4OeKcZB" name="BusinessLogicTreeAPI">
    <mxGraphModel dx="2284" dy="1871" grid="1" gridSize="10" guides="1" tooltips="1" connect="1" arrows="1" fold="1" page="1" pageScale="1" pageWidth="850" pageHeight="1100" math="0" shadow="0">
      <root>
        <mxCell id="0" />
        <mxCell id="1" parent="0" />
        <mxCell id="136" value="" style="rounded=0;whiteSpace=wrap;html=1;fillColor=#dae8fc;opacity=30;strokeColor=#6c8ebf;rotation=90;" parent="1" vertex="1">
          <mxGeometry x="239.5" y="277.5" width="680" height="535" as="geometry" />
        </mxCell>
        <mxCell id="135" value="" style="rounded=0;whiteSpace=wrap;html=1;fillColor=#dae8fc;opacity=30;strokeColor=#6c8ebf;" parent="1" vertex="1">
          <mxGeometry x="-570" y="110" width="880" height="770" as="geometry" />
        </mxCell>
        <mxCell id="132" value="" style="rounded=0;whiteSpace=wrap;html=1;fillColor=#f5f5f5;opacity=30;strokeColor=#666666;fontColor=#333333;" parent="1" vertex="1">
          <mxGeometry x="310" y="-70" width="540" height="280" as="geometry" />
        </mxCell>
        <mxCell id="6" value="" style="edgeStyle=none;html=1;" parent="1" source="3" target="5" edge="1">
          <mxGeometry relative="1" as="geometry" />
        </mxCell>
        <mxCell id="9" value="" style="edgeStyle=none;html=1;" parent="1" source="3" target="8" edge="1">
          <mxGeometry relative="1" as="geometry">
            <Array as="points">
              <mxPoint x="350" y="70" />
            </Array>
          </mxGeometry>
        </mxCell>
        <mxCell id="10" value="No" style="edgeLabel;html=1;align=center;verticalAlign=middle;resizable=0;points=[];" parent="9" vertex="1" connectable="0">
          <mxGeometry x="-0.3667" y="-1" relative="1" as="geometry">
            <mxPoint as="offset" />
          </mxGeometry>
        </mxCell>
        <mxCell id="3" value="Auth&#39;d?" style="rhombus;whiteSpace=wrap;html=1;rounded=1;" parent="1" vertex="1">
          <mxGeometry x="310" y="120" width="80" height="80" as="geometry" />
        </mxCell>
        <mxCell id="64" value="" style="edgeStyle=orthogonalEdgeStyle;html=1;startArrow=none;startFill=0;" parent="1" source="5" target="25" edge="1">
          <mxGeometry relative="1" as="geometry" />
        </mxCell>
        <mxCell id="73" value="" style="edgeStyle=orthogonalEdgeStyle;html=1;startArrow=none;startFill=0;" parent="1" source="5" target="71" edge="1">
          <mxGeometry relative="1" as="geometry" />
        </mxCell>
        <mxCell id="100" value="" style="edgeStyle=orthogonalEdgeStyle;html=1;startArrow=none;startFill=0;" parent="1" source="5" target="39" edge="1">
          <mxGeometry relative="1" as="geometry" />
        </mxCell>
        <mxCell id="110" style="edgeStyle=orthogonalEdgeStyle;html=1;entryX=1;entryY=0.5;entryDx=0;entryDy=0;startArrow=none;startFill=0;" parent="1" source="5" target="109" edge="1">
          <mxGeometry relative="1" as="geometry">
            <Array as="points">
              <mxPoint x="260" y="260" />
              <mxPoint x="260" y="150" />
            </Array>
          </mxGeometry>
        </mxCell>
        <mxCell id="142" style="edgeStyle=orthogonalEdgeStyle;html=1;entryX=1;entryY=0.75;entryDx=0;entryDy=0;startArrow=none;startFill=0;" parent="1" source="5" target="141" edge="1">
          <mxGeometry relative="1" as="geometry">
            <Array as="points">
              <mxPoint x="260" y="260" />
              <mxPoint x="260" y="87" />
            </Array>
          </mxGeometry>
        </mxCell>
        <mxCell id="5" value="Dashboard&lt;br&gt;/dashboard&lt;br&gt;Default: Active Tools" style="whiteSpace=wrap;html=1;rounded=1;fillColor=#fff2cc;strokeColor=#d6b656;" parent="1" vertex="1">
          <mxGeometry x="290" y="230" width="120" height="60" as="geometry" />
        </mxCell>
        <mxCell id="7" value="Yes" style="text;html=1;align=center;verticalAlign=middle;resizable=0;points=[];autosize=1;strokeColor=none;fillColor=none;" parent="1" vertex="1">
          <mxGeometry x="350" y="200" width="40" height="20" as="geometry" />
        </mxCell>
        <mxCell id="12" value="" style="edgeStyle=none;html=1;" parent="1" source="8" target="11" edge="1">
          <mxGeometry relative="1" as="geometry" />
        </mxCell>
        <mxCell id="8" value="Index/Homepage&lt;br&gt;/" style="whiteSpace=wrap;html=1;rounded=1;fillColor=#fff2cc;strokeColor=#d6b656;" parent="1" vertex="1">
          <mxGeometry x="625" y="40" width="120" height="60" as="geometry" />
        </mxCell>
        <mxCell id="14" value="" style="edgeStyle=none;html=1;" parent="1" source="11" target="13" edge="1">
          <mxGeometry relative="1" as="geometry" />
        </mxCell>
        <mxCell id="11" value="Login Page&lt;br&gt;/login" style="whiteSpace=wrap;html=1;rounded=1;fillColor=#d5e8d4;strokeColor=#82b366;" parent="1" vertex="1">
          <mxGeometry x="625" y="130" width="120" height="60" as="geometry" />
        </mxCell>
        <mxCell id="106" style="edgeStyle=orthogonalEdgeStyle;html=1;entryX=1;entryY=0.5;entryDx=0;entryDy=0;startArrow=none;startFill=0;" parent="1" source="13" target="3" edge="1">
          <mxGeometry relative="1" as="geometry" />
        </mxCell>
        <mxCell id="13" value="Auth via Passport" style="shape=process;whiteSpace=wrap;html=1;backgroundOutline=1;fillColor=#d5e8d4;strokeColor=#82b366;" parent="1" vertex="1">
          <mxGeometry x="440" y="130" width="120" height="60" as="geometry" />
        </mxCell>
        <mxCell id="96" value="" style="edgeStyle=orthogonalEdgeStyle;html=1;startArrow=none;startFill=0;" parent="1" source="23" target="95" edge="1">
          <mxGeometry relative="1" as="geometry" />
        </mxCell>
        <mxCell id="180" style="edgeStyle=orthogonalEdgeStyle;html=1;startArrow=none;startFill=0;" parent="1" source="23" target="176" edge="1">
          <mxGeometry relative="1" as="geometry" />
        </mxCell>
        <mxCell id="181" style="edgeStyle=orthogonalEdgeStyle;html=1;entryX=0.609;entryY=0.957;entryDx=0;entryDy=0;entryPerimeter=0;startArrow=none;startFill=0;" parent="1" source="23" target="48" edge="1">
          <mxGeometry relative="1" as="geometry" />
        </mxCell>
        <mxCell id="23" value="Dashboard + data&lt;br&gt;/dashboard" style="whiteSpace=wrap;html=1;rounded=1;fillColor=#fff2cc;strokeColor=#d6b656;" parent="1" vertex="1">
          <mxGeometry x="110" y="490" width="120" height="60" as="geometry" />
        </mxCell>
        <mxCell id="65" value="" style="edgeStyle=orthogonalEdgeStyle;html=1;startArrow=none;startFill=0;" parent="1" source="25" target="29" edge="1">
          <mxGeometry relative="1" as="geometry" />
        </mxCell>
        <mxCell id="25" value="User Selects&lt;br&gt;&amp;nbsp;Search Button" style="verticalLabelPosition=middle;verticalAlign=middle;html=1;shape=trapezoid;perimeter=trapezoidPerimeter;whiteSpace=wrap;size=0.23;arcSize=10;flipV=1;labelPosition=center;align=center;fontFamily=Helvetica;fontSize=12;strokeColor=#82b366;fillColor=#d5e8d4;" parent="1" vertex="1">
          <mxGeometry x="80" y="260" width="150" height="40" as="geometry" />
        </mxCell>
        <mxCell id="67" value="" style="edgeStyle=orthogonalEdgeStyle;html=1;startArrow=none;startFill=0;" parent="1" source="32" target="42" edge="1">
          <mxGeometry relative="1" as="geometry" />
        </mxCell>
        <mxCell id="32" value="User Submits &lt;br&gt;Search&amp;nbsp;" style="verticalLabelPosition=middle;verticalAlign=top;html=1;shape=trapezoid;perimeter=trapezoidPerimeter;whiteSpace=wrap;size=0.23;arcSize=10;flipV=1;labelPosition=center;align=center;fontFamily=Helvetica;fontSize=12;fontColor=rgb(0, 0, 0);strokeColor=rgb(0, 0, 0);fillColor=rgb(255, 255, 255);" parent="1" vertex="1">
          <mxGeometry x="-252.5" y="340" width="155" height="40" as="geometry" />
        </mxCell>
        <mxCell id="66" value="" style="edgeStyle=orthogonalEdgeStyle;html=1;startArrow=none;startFill=0;" parent="1" source="29" target="32" edge="1">
          <mxGeometry relative="1" as="geometry">
            <Array as="points">
              <mxPoint x="-175" y="280" />
            </Array>
          </mxGeometry>
        </mxCell>
        <mxCell id="29" value="Search Modal&lt;br&gt;/dashboard" style="whiteSpace=wrap;html=1;rounded=1;fillColor=#fff2cc;strokeColor=#d6b656;" parent="1" vertex="1">
          <mxGeometry x="-110" y="250" width="130" height="60" as="geometry" />
        </mxCell>
        <mxCell id="40" value="" style="edgeStyle=orthogonalEdgeStyle;html=1;startArrow=none;startFill=0;exitX=0.5;exitY=1;exitDx=0;exitDy=0;" parent="1" source="39" target="23" edge="1">
          <mxGeometry relative="1" as="geometry">
            <Array as="points">
              <mxPoint x="350" y="400" />
              <mxPoint x="350" y="510" />
            </Array>
          </mxGeometry>
        </mxCell>
        <mxCell id="39" value="HTTP/GET&lt;br&gt;/api/tool&lt;br&gt;req.body.tools" style="shape=process;whiteSpace=wrap;html=1;backgroundOutline=1;" parent="1" vertex="1">
          <mxGeometry x="272.5" y="340" width="155" height="60" as="geometry" />
        </mxCell>
        <mxCell id="68" style="edgeStyle=orthogonalEdgeStyle;html=1;entryX=0;entryY=0.5;entryDx=0;entryDy=0;startArrow=none;startFill=0;" parent="1" source="42" target="23" edge="1">
          <mxGeometry relative="1" as="geometry">
            <Array as="points">
              <mxPoint x="-170" y="520" />
            </Array>
          </mxGeometry>
        </mxCell>
        <mxCell id="42" value="HTTP/GET&lt;br&gt;/api/tools/searchByXX&lt;br&gt;req.body{data}" style="shape=process;whiteSpace=wrap;html=1;backgroundOutline=1;" parent="1" vertex="1">
          <mxGeometry x="-255" y="410" width="160" height="60" as="geometry" />
        </mxCell>
        <mxCell id="182" value="" style="edgeStyle=orthogonalEdgeStyle;html=1;startArrow=none;startFill=0;" parent="1" source="48" target="173" edge="1">
          <mxGeometry relative="1" as="geometry" />
        </mxCell>
        <mxCell id="48" value="User Selects&lt;br&gt;Edit" style="verticalLabelPosition=middle;verticalAlign=top;html=1;shape=trapezoid;perimeter=trapezoidPerimeter;whiteSpace=wrap;size=0.23;arcSize=10;flipV=1;labelPosition=center;align=center;fontFamily=Helvetica;fontSize=12;strokeColor=#d6b656;fillColor=#fff2cc;" parent="1" vertex="1">
          <mxGeometry x="5" y="600" width="155" height="40" as="geometry" />
        </mxCell>
        <mxCell id="74" value="" style="edgeStyle=orthogonalEdgeStyle;html=1;startArrow=none;startFill=0;" parent="1" source="71" target="72" edge="1">
          <mxGeometry relative="1" as="geometry" />
        </mxCell>
        <mxCell id="71" value="User Selects&amp;nbsp;&lt;br&gt;Check-in/out" style="verticalLabelPosition=middle;verticalAlign=top;html=1;shape=trapezoid;perimeter=trapezoidPerimeter;whiteSpace=wrap;size=0.23;arcSize=10;flipV=1;labelPosition=center;align=center;fontFamily=Helvetica;fontSize=12;fontColor=rgb(0, 0, 0);strokeColor=rgb(0, 0, 0);fillColor=rgb(255, 255, 255);" parent="1" vertex="1">
          <mxGeometry x="440" y="240" width="155" height="40" as="geometry" />
        </mxCell>
        <mxCell id="77" value="" style="edgeStyle=orthogonalEdgeStyle;html=1;startArrow=none;startFill=0;" parent="1" source="72" target="76" edge="1">
          <mxGeometry relative="1" as="geometry" />
        </mxCell>
        <mxCell id="72" value="Check-In/Out Modal&amp;nbsp;&lt;br&gt;/dashboard" style="rounded=1;whiteSpace=wrap;html=1;fillColor=#fff2cc;strokeColor=#d6b656;" parent="1" vertex="1">
          <mxGeometry x="620" y="230" width="120" height="60" as="geometry" />
        </mxCell>
        <mxCell id="76" value="User Submits&amp;nbsp;&lt;br&gt;Form" style="verticalLabelPosition=middle;verticalAlign=top;html=1;shape=trapezoid;perimeter=trapezoidPerimeter;whiteSpace=wrap;size=0.23;arcSize=10;flipV=1;labelPosition=center;align=center;fontFamily=Helvetica;fontSize=12;fontColor=rgb(0, 0, 0);strokeColor=rgb(0, 0, 0);fillColor=rgb(255, 255, 255);" parent="1" vertex="1">
          <mxGeometry x="602.5" y="310" width="155" height="40" as="geometry" />
        </mxCell>
        <mxCell id="82" value="" style="edgeStyle=orthogonalEdgeStyle;html=1;startArrow=none;startFill=0;" parent="1" source="76" target="83" edge="1">
          <mxGeometry relative="1" as="geometry">
            <mxPoint x="664.7388235294117" y="370" as="sourcePoint" />
          </mxGeometry>
        </mxCell>
        <mxCell id="87" style="edgeStyle=orthogonalEdgeStyle;html=1;startArrow=none;startFill=0;" parent="1" source="83" target="86" edge="1">
          <mxGeometry relative="1" as="geometry" />
        </mxCell>
        <mxCell id="83" value="HTTP/GET&lt;br&gt;/api/tool/search&lt;br&gt;Req.body.tools{data}" style="shape=process;whiteSpace=wrap;html=1;backgroundOutline=1;" parent="1" vertex="1">
          <mxGeometry x="600" y="370" width="160" height="60" as="geometry" />
        </mxCell>
        <mxCell id="90" value="" style="edgeStyle=orthogonalEdgeStyle;html=1;startArrow=none;startFill=0;" parent="1" source="86" target="89" edge="1">
          <mxGeometry relative="1" as="geometry" />
        </mxCell>
        <mxCell id="86" value="Check-in/Out&lt;br&gt;Confirm Modal" style="rounded=1;whiteSpace=wrap;html=1;fillColor=#FF8000;strokeColor=#FF8000;" parent="1" vertex="1">
          <mxGeometry x="620" y="450" width="120" height="60" as="geometry" />
        </mxCell>
        <mxCell id="92" value="" style="edgeStyle=orthogonalEdgeStyle;html=1;startArrow=none;startFill=0;entryX=1;entryY=0.5;entryDx=0;entryDy=0;" parent="1" source="89" target="91" edge="1">
          <mxGeometry relative="1" as="geometry" />
        </mxCell>
        <mxCell id="89" value="User Submits&amp;nbsp;&lt;br&gt;Form" style="verticalLabelPosition=middle;verticalAlign=top;html=1;shape=trapezoid;perimeter=trapezoidPerimeter;whiteSpace=wrap;size=0.23;arcSize=10;flipV=1;labelPosition=center;align=center;fontFamily=Helvetica;fontSize=12;fontColor=rgb(0, 0, 0);strokeColor=rgb(0, 0, 0);fillColor=rgb(255, 255, 255);" parent="1" vertex="1">
          <mxGeometry x="602.5" y="540" width="155" height="40" as="geometry" />
        </mxCell>
        <mxCell id="AcRuhjQtrq6F4DFQvBhn-196" style="edgeStyle=elbowEdgeStyle;elbow=vertical;html=1;entryX=1;entryY=0.5;entryDx=0;entryDy=0;startArrow=none;startFill=0;" parent="1" source="91" target="39" edge="1">
          <mxGeometry relative="1" as="geometry">
            <Array as="points">
              <mxPoint x="460" y="370" />
              <mxPoint x="450" y="400" />
              <mxPoint x="460" y="430" />
            </Array>
          </mxGeometry>
        </mxCell>
        <mxCell id="91" value="HTTP/PUT&lt;br&gt;/api/tool&lt;br&gt;Req.body.tools" style="shape=process;whiteSpace=wrap;html=1;backgroundOutline=1;fillColor=#fff2cc;strokeColor=#d6b656;" parent="1" vertex="1">
          <mxGeometry x="390" y="530" width="150" height="60" as="geometry" />
        </mxCell>
        <mxCell id="98" value="" style="edgeStyle=orthogonalEdgeStyle;html=1;startArrow=none;startFill=0;" parent="1" source="95" target="97" edge="1">
          <mxGeometry relative="1" as="geometry" />
        </mxCell>
        <mxCell id="95" value="User Selects&amp;nbsp;&lt;br&gt;Create New" style="verticalLabelPosition=middle;verticalAlign=top;html=1;shape=trapezoid;perimeter=trapezoidPerimeter;whiteSpace=wrap;size=0.23;arcSize=10;flipV=1;labelPosition=center;align=center;fontFamily=Helvetica;fontSize=12;fontColor=rgb(0, 0, 0);strokeColor=rgb(0, 0, 0);fillColor=rgb(255, 255, 255);" parent="1" vertex="1">
          <mxGeometry x="92.5" y="420" width="155" height="40" as="geometry" />
        </mxCell>
        <mxCell id="101" value="" style="edgeStyle=orthogonalEdgeStyle;html=1;startArrow=none;startFill=0;" parent="1" source="97" target="99" edge="1">
          <mxGeometry relative="1" as="geometry" />
        </mxCell>
        <mxCell id="97" value="Create Tool Modal&lt;br&gt;/dashboard" style="rounded=1;whiteSpace=wrap;html=1;fillColor=#fff2cc;strokeColor=#d6b656;" parent="1" vertex="1">
          <mxGeometry x="110" y="330" width="120" height="60" as="geometry" />
        </mxCell>
        <mxCell id="103" value="" style="edgeStyle=orthogonalEdgeStyle;html=1;startArrow=none;startFill=0;" parent="1" source="99" target="102" edge="1">
          <mxGeometry relative="1" as="geometry" />
        </mxCell>
        <mxCell id="99" value="User Submits&lt;br&gt;&amp;nbsp;Form" style="verticalLabelPosition=middle;verticalAlign=top;html=1;shape=trapezoid;perimeter=trapezoidPerimeter;whiteSpace=wrap;size=0.23;arcSize=10;flipV=1;labelPosition=center;align=center;fontFamily=Helvetica;fontSize=12;fontColor=rgb(0, 0, 0);strokeColor=rgb(0, 0, 0);fillColor=rgb(255, 255, 255);" parent="1" vertex="1">
          <mxGeometry x="-75" y="340" width="155" height="40" as="geometry" />
        </mxCell>
        <mxCell id="104" style="edgeStyle=orthogonalEdgeStyle;html=1;entryX=0;entryY=0.5;entryDx=0;entryDy=0;startArrow=none;startFill=0;" parent="1" source="102" target="23" edge="1">
          <mxGeometry relative="1" as="geometry">
            <Array as="points">
              <mxPoint x="3" y="520" />
            </Array>
          </mxGeometry>
        </mxCell>
        <mxCell id="102" value="HTTP/POST&lt;br&gt;/api/tool/submit" style="shape=process;whiteSpace=wrap;html=1;backgroundOutline=1;" parent="1" vertex="1">
          <mxGeometry x="-67.5" y="410" width="140" height="60" as="geometry" />
        </mxCell>
        <mxCell id="108" value="" style="edgeStyle=orthogonalEdgeStyle;html=1;startArrow=none;startFill=0;" parent="1" source="107" target="8" edge="1">
          <mxGeometry relative="1" as="geometry" />
        </mxCell>
        <mxCell id="107" value="&lt;b&gt;START&lt;/b&gt;" style="strokeWidth=2;html=1;shape=mxgraph.flowchart.start_1;whiteSpace=wrap;fillColor=#d5e8d4;strokeColor=#82b366;" parent="1" vertex="1">
          <mxGeometry x="635" y="-60" width="100" height="60" as="geometry" />
        </mxCell>
        <mxCell id="113" style="edgeStyle=orthogonalEdgeStyle;html=1;entryX=1;entryY=0.5;entryDx=0;entryDy=0;startArrow=none;startFill=0;" parent="1" source="109" target="112" edge="1">
          <mxGeometry relative="1" as="geometry" />
        </mxCell>
        <mxCell id="109" value="User Selects&lt;br&gt;Profile" style="verticalLabelPosition=middle;verticalAlign=top;html=1;shape=trapezoid;perimeter=trapezoidPerimeter;whiteSpace=wrap;size=0.23;arcSize=10;flipV=1;labelPosition=center;align=center;fontFamily=Helvetica;fontSize=12;strokeColor=#82b366;fillColor=#d5e8d4;" parent="1" vertex="1">
          <mxGeometry x="92.5" y="140" width="155" height="40" as="geometry" />
        </mxCell>
        <mxCell id="115" style="edgeStyle=orthogonalEdgeStyle;html=1;entryX=1;entryY=0.5;entryDx=0;entryDy=0;startArrow=none;startFill=0;" parent="1" source="112" target="114" edge="1">
          <mxGeometry relative="1" as="geometry" />
        </mxCell>
        <mxCell id="112" value="HTTP/GET&lt;br&gt;/user/id&lt;br&gt;req.body.user" style="shape=process;whiteSpace=wrap;html=1;backgroundOutline=1;" parent="1" vertex="1">
          <mxGeometry x="-82.5" y="130" width="150" height="60" as="geometry" />
        </mxCell>
        <mxCell id="117" value="" style="edgeStyle=orthogonalEdgeStyle;html=1;startArrow=none;startFill=0;" parent="1" source="114" target="116" edge="1">
          <mxGeometry relative="1" as="geometry" />
        </mxCell>
        <mxCell id="114" value="User Profile&lt;br&gt;/dashboard/user/:id" style="whiteSpace=wrap;html=1;rounded=1;fillColor=#fff2cc;strokeColor=#d6b656;" parent="1" vertex="1">
          <mxGeometry x="-270" y="130" width="135" height="60" as="geometry" />
        </mxCell>
        <mxCell id="194" style="edgeStyle=orthogonalEdgeStyle;html=1;entryX=0.468;entryY=0.014;entryDx=0;entryDy=0;entryPerimeter=0;startArrow=none;startFill=0;" parent="1" source="116" target="125" edge="1">
          <mxGeometry relative="1" as="geometry" />
        </mxCell>
        <mxCell id="116" value="User Selects&lt;br&gt;Reset PW" style="verticalLabelPosition=middle;verticalAlign=top;html=1;shape=trapezoid;perimeter=trapezoidPerimeter;whiteSpace=wrap;size=0.23;arcSize=10;flipV=1;labelPosition=center;align=center;fontFamily=Helvetica;fontSize=12;fontColor=#000000;strokeColor=#C73500;fillColor=#fa6800;" parent="1" vertex="1">
          <mxGeometry x="-505" y="140" width="155" height="40" as="geometry" />
        </mxCell>
        <mxCell id="119" value="Legend" style="swimlane;fillColor=#B3B3B3;" parent="1" vertex="1">
          <mxGeometry x="-570" y="680" width="500" height="200" as="geometry" />
        </mxCell>
        <mxCell id="140" value="" style="rounded=0;whiteSpace=wrap;html=1;fillColor=#B3B3B3;opacity=30;" parent="119" vertex="1">
          <mxGeometry y="23" width="500" height="177" as="geometry" />
        </mxCell>
        <mxCell id="118" value="Page/Modal Name&lt;br&gt;/url/endpoint" style="whiteSpace=wrap;html=1;rounded=1;" parent="119" vertex="1">
          <mxGeometry x="10" y="30" width="150" height="60" as="geometry" />
        </mxCell>
        <mxCell id="120" value="User Interaction&lt;br&gt;or Decision" style="verticalLabelPosition=middle;verticalAlign=top;html=1;shape=trapezoid;perimeter=trapezoidPerimeter;whiteSpace=wrap;size=0.23;arcSize=10;flipV=1;labelPosition=center;align=center;fontFamily=Helvetica;fontSize=12;fontColor=rgb(0, 0, 0);strokeColor=rgb(0, 0, 0);fillColor=rgb(255, 255, 255);" parent="119" vertex="1">
          <mxGeometry x="10" y="140" width="155" height="40" as="geometry" />
        </mxCell>
        <mxCell id="121" value="Condition&lt;br&gt;Eval" style="rhombus;whiteSpace=wrap;html=1;rounded=1;" parent="119" vertex="1">
          <mxGeometry x="220" y="30" width="80" height="80" as="geometry" />
        </mxCell>
        <mxCell id="122" value="HTTP/METHOD&lt;br&gt;/api/endpoint&lt;br&gt;req.body.{dataObj}" style="shape=process;whiteSpace=wrap;html=1;backgroundOutline=1;" parent="119" vertex="1">
          <mxGeometry x="190" y="130" width="150" height="60" as="geometry" />
        </mxCell>
        <mxCell id="123" value="API Call" style="text;html=1;align=center;verticalAlign=middle;resizable=0;points=[];autosize=1;strokeColor=none;fillColor=none;fontStyle=1" parent="119" vertex="1">
          <mxGeometry x="190" y="110" width="60" height="20" as="geometry" />
        </mxCell>
        <mxCell id="4zea3ByAvp3VyqDamxQy-196" value="&lt;b&gt;Created - Completed&lt;/b&gt;" style="rounded=0;whiteSpace=wrap;html=1;fillColor=#d5e8d4;strokeColor=#82b366;" vertex="1" parent="119">
          <mxGeometry x="350" y="40" width="130" height="30" as="geometry" />
        </mxCell>
        <mxCell id="4zea3ByAvp3VyqDamxQy-197" value="&lt;b&gt;Created - Needs Work&lt;/b&gt;" style="rounded=0;whiteSpace=wrap;html=1;fillColor=#fff2cc;strokeColor=#d6b656;" vertex="1" parent="119">
          <mxGeometry x="350" y="81.5" width="130" height="28.5" as="geometry" />
        </mxCell>
        <mxCell id="4zea3ByAvp3VyqDamxQy-198" value="&lt;b&gt;Not Created&lt;/b&gt;" style="rounded=0;whiteSpace=wrap;html=1;fillColor=#FF8000;strokeColor=#d79b00;" vertex="1" parent="119">
          <mxGeometry x="350" y="120" width="130" height="28.5" as="geometry" />
        </mxCell>
        <mxCell id="4zea3ByAvp3VyqDamxQy-199" value="&lt;b&gt;Removed&lt;/b&gt;" style="rounded=0;whiteSpace=wrap;html=1;fillColor=#f8cecc;strokeColor=#b85450;" vertex="1" parent="119">
          <mxGeometry x="350" y="161.5" width="130" height="28.5" as="geometry" />
        </mxCell>
        <mxCell id="195" style="edgeStyle=orthogonalEdgeStyle;html=1;entryX=0.462;entryY=0.99;entryDx=0;entryDy=0;entryPerimeter=0;startArrow=none;startFill=0;" parent="1" source="125" target="127" edge="1">
          <mxGeometry relative="1" as="geometry" />
        </mxCell>
        <mxCell id="125" value="PW Reset Modal&lt;br&gt;/dashboard/user/:id" style="whiteSpace=wrap;html=1;rounded=1;fillColor=#f0a30a;fontColor=#000000;strokeColor=#BD7000;" parent="1" vertex="1">
          <mxGeometry x="-491" y="210" width="135" height="60" as="geometry" />
        </mxCell>
        <mxCell id="196" style="edgeStyle=orthogonalEdgeStyle;html=1;entryX=0;entryY=0.5;entryDx=0;entryDy=0;startArrow=none;startFill=0;" parent="1" source="127" target="129" edge="1">
          <mxGeometry relative="1" as="geometry" />
        </mxCell>
        <mxCell id="127" value="User Submits Form" style="verticalLabelPosition=middle;verticalAlign=top;html=1;shape=trapezoid;perimeter=trapezoidPerimeter;whiteSpace=wrap;size=0.23;arcSize=10;flipV=1;labelPosition=center;align=center;fontFamily=Helvetica;fontSize=12;fontColor=rgb(0, 0, 0);strokeColor=rgb(0, 0, 0);fillColor=rgb(255, 255, 255);" parent="1" vertex="1">
          <mxGeometry x="-495" y="290" width="155" height="30" as="geometry" />
        </mxCell>
        <mxCell id="131" style="edgeStyle=orthogonalEdgeStyle;html=1;startArrow=none;startFill=0;entryX=0.5;entryY=1;entryDx=0;entryDy=0;" parent="1" source="129" target="112" edge="1">
          <mxGeometry relative="1" as="geometry">
            <mxPoint x="-360" y="170" as="targetPoint" />
            <Array as="points">
              <mxPoint x="-7" y="210" />
            </Array>
          </mxGeometry>
        </mxCell>
        <mxCell id="129" value="HTTP/PUT&lt;br&gt;/api/user&lt;br&gt;req.body.json{data}" style="shape=process;whiteSpace=wrap;html=1;backgroundOutline=1;" parent="1" vertex="1">
          <mxGeometry x="-285" y="200" width="150" height="60" as="geometry" />
        </mxCell>
        <mxCell id="133" value="Public Security Context" style="text;html=1;strokeColor=none;fillColor=none;align=center;verticalAlign=middle;whiteSpace=wrap;rounded=0;opacity=30;fontStyle=1" parent="1" vertex="1">
          <mxGeometry x="310" y="-70" width="150" height="30" as="geometry" />
        </mxCell>
        <mxCell id="137" value="" style="rounded=0;whiteSpace=wrap;html=1;fillColor=#ffe6cc;opacity=30;strokeColor=#d79b00;" parent="1" vertex="1">
          <mxGeometry x="-350" y="-390" width="660" height="500" as="geometry" />
        </mxCell>
        <mxCell id="138" value="Manager Security Context" style="text;html=1;strokeColor=none;fillColor=none;align=center;verticalAlign=middle;whiteSpace=wrap;rounded=0;opacity=30;fontStyle=1" parent="1" vertex="1">
          <mxGeometry x="-350" y="-380" width="190" height="30" as="geometry" />
        </mxCell>
        <mxCell id="139" value="User Security Context" style="text;html=1;strokeColor=none;fillColor=none;align=center;verticalAlign=middle;whiteSpace=wrap;rounded=0;opacity=30;fontStyle=1" parent="1" vertex="1">
          <mxGeometry x="-580" y="110" width="165" height="30" as="geometry" />
        </mxCell>
        <mxCell id="144" value="" style="edgeStyle=orthogonalEdgeStyle;html=1;startArrow=none;startFill=0;entryX=0.5;entryY=1;entryDx=0;entryDy=0;" parent="1" source="141" target="145" edge="1">
          <mxGeometry relative="1" as="geometry">
            <mxPoint x="150" y="10.000000000000227" as="targetPoint" />
          </mxGeometry>
        </mxCell>
        <mxCell id="141" value="Manager Selects&amp;nbsp;&lt;br&gt;User Management" style="verticalLabelPosition=middle;verticalAlign=top;html=1;shape=trapezoid;perimeter=trapezoidPerimeter;whiteSpace=wrap;size=0.23;arcSize=10;flipV=1;labelPosition=center;align=center;fontFamily=Helvetica;fontSize=12;fontColor=rgb(0, 0, 0);strokeColor=rgb(0, 0, 0);fillColor=rgb(255, 255, 255);" parent="1" vertex="1">
          <mxGeometry x="50" y="60" width="200" height="40" as="geometry" />
        </mxCell>
        <mxCell id="147" value="" style="edgeStyle=orthogonalEdgeStyle;html=1;startArrow=none;startFill=0;" parent="1" source="145" target="146" edge="1">
          <mxGeometry relative="1" as="geometry" />
        </mxCell>
        <mxCell id="145" value="HTTP/GET&lt;br&gt;/api/user&lt;br&gt;req.body.json{data}" style="shape=process;whiteSpace=wrap;html=1;backgroundOutline=1;" parent="1" vertex="1">
          <mxGeometry x="75" y="-30" width="150" height="60" as="geometry" />
        </mxCell>
        <mxCell id="150" value="" style="edgeStyle=orthogonalEdgeStyle;html=1;startArrow=none;startFill=0;" parent="1" source="146" target="148" edge="1">
          <mxGeometry relative="1" as="geometry" />
        </mxCell>
        <mxCell id="160" style="edgeStyle=orthogonalEdgeStyle;html=1;startArrow=none;startFill=0;entryX=1;entryY=0.5;entryDx=0;entryDy=0;" parent="1" source="146" target="157" edge="1">
          <mxGeometry relative="1" as="geometry">
            <Array as="points">
              <mxPoint x="140" y="-140" />
            </Array>
          </mxGeometry>
        </mxCell>
        <mxCell id="162" style="edgeStyle=orthogonalEdgeStyle;html=1;entryX=1;entryY=0.5;entryDx=0;entryDy=0;startArrow=none;startFill=0;" parent="1" source="146" target="158" edge="1">
          <mxGeometry relative="1" as="geometry">
            <Array as="points">
              <mxPoint x="140" y="-180" />
            </Array>
          </mxGeometry>
        </mxCell>
        <mxCell id="164" style="edgeStyle=orthogonalEdgeStyle;html=1;entryX=1;entryY=0.5;entryDx=0;entryDy=0;startArrow=none;startFill=0;" parent="1" source="146" target="159" edge="1">
          <mxGeometry relative="1" as="geometry">
            <Array as="points">
              <mxPoint x="140" y="-220" />
            </Array>
          </mxGeometry>
        </mxCell>
        <mxCell id="146" value="User Management&lt;br&gt;/userManagement" style="whiteSpace=wrap;html=1;rounded=1;" parent="1" vertex="1">
          <mxGeometry x="82.5" y="-120" width="135" height="60" as="geometry" />
        </mxCell>
        <mxCell id="151" value="" style="edgeStyle=orthogonalEdgeStyle;html=1;startArrow=none;startFill=0;" parent="1" source="148" target="149" edge="1">
          <mxGeometry relative="1" as="geometry" />
        </mxCell>
        <mxCell id="148" value="Manager Selects&amp;nbsp;&lt;br&gt;Create User&amp;nbsp;" style="verticalLabelPosition=middle;verticalAlign=top;html=1;shape=trapezoid;perimeter=trapezoidPerimeter;whiteSpace=wrap;size=0.23;arcSize=10;flipV=1;labelPosition=center;align=center;fontFamily=Helvetica;fontSize=12;fontColor=rgb(0, 0, 0);strokeColor=rgb(0, 0, 0);fillColor=rgb(255, 255, 255);" parent="1" vertex="1">
          <mxGeometry x="-140" y="-110" width="200" height="40" as="geometry" />
        </mxCell>
        <mxCell id="153" value="" style="edgeStyle=orthogonalEdgeStyle;html=1;startArrow=none;startFill=0;" parent="1" source="149" target="152" edge="1">
          <mxGeometry relative="1" as="geometry" />
        </mxCell>
        <mxCell id="149" value="Create User Modal&lt;br&gt;/userManagement" style="whiteSpace=wrap;html=1;rounded=1;" parent="1" vertex="1">
          <mxGeometry x="-297.5" y="-120" width="135" height="60" as="geometry" />
        </mxCell>
        <mxCell id="155" value="" style="edgeStyle=orthogonalEdgeStyle;html=1;startArrow=none;startFill=0;" parent="1" source="152" target="154" edge="1">
          <mxGeometry relative="1" as="geometry" />
        </mxCell>
        <mxCell id="152" value="Manager&lt;br&gt;Submits" style="verticalLabelPosition=middle;verticalAlign=top;html=1;shape=trapezoid;perimeter=trapezoidPerimeter;whiteSpace=wrap;size=0.23;arcSize=10;flipV=1;labelPosition=center;align=center;fontFamily=Helvetica;fontSize=12;fontColor=rgb(0, 0, 0);strokeColor=rgb(0, 0, 0);fillColor=rgb(255, 255, 255);" parent="1" vertex="1">
          <mxGeometry x="-285" y="-20" width="110" height="40" as="geometry" />
        </mxCell>
        <mxCell id="156" value="" style="edgeStyle=orthogonalEdgeStyle;html=1;startArrow=none;startFill=0;" parent="1" source="154" target="145" edge="1">
          <mxGeometry relative="1" as="geometry" />
        </mxCell>
        <mxCell id="154" value="HTTP/POST&lt;br&gt;/api/user&lt;br&gt;req.body.json{data}" style="shape=process;whiteSpace=wrap;html=1;backgroundOutline=1;" parent="1" vertex="1">
          <mxGeometry x="-130" y="-30" width="150" height="60" as="geometry" />
        </mxCell>
        <mxCell id="167" style="edgeStyle=orthogonalEdgeStyle;html=1;entryX=0;entryY=0.5;entryDx=0;entryDy=0;startArrow=none;startFill=0;" parent="1" source="157" target="166" edge="1">
          <mxGeometry relative="1" as="geometry">
            <Array as="points">
              <mxPoint x="-160" y="-140" />
              <mxPoint x="-160" y="-330" />
            </Array>
          </mxGeometry>
        </mxCell>
        <mxCell id="157" value="Manager Selects&lt;br&gt;Reset Password" style="verticalLabelPosition=middle;verticalAlign=top;html=1;shape=trapezoid;perimeter=trapezoidPerimeter;whiteSpace=wrap;size=0.23;arcSize=10;flipV=1;labelPosition=center;align=center;fontFamily=Helvetica;fontSize=12;fontColor=rgb(0, 0, 0);strokeColor=rgb(0, 0, 0);fillColor=rgb(255, 255, 255);" parent="1" vertex="1">
          <mxGeometry x="-145" y="-160" width="150" height="40" as="geometry" />
        </mxCell>
        <mxCell id="168" style="edgeStyle=orthogonalEdgeStyle;html=1;entryX=0;entryY=0.5;entryDx=0;entryDy=0;startArrow=none;startFill=0;" parent="1" source="158" target="166" edge="1">
          <mxGeometry relative="1" as="geometry">
            <Array as="points">
              <mxPoint x="-160" y="-180" />
              <mxPoint x="-160" y="-330" />
            </Array>
          </mxGeometry>
        </mxCell>
        <mxCell id="158" value="Manager Selects&lt;br&gt;Disable User" style="verticalLabelPosition=middle;verticalAlign=top;html=1;shape=trapezoid;perimeter=trapezoidPerimeter;whiteSpace=wrap;size=0.23;arcSize=10;flipV=1;labelPosition=center;align=center;fontFamily=Helvetica;fontSize=12;fontColor=rgb(0, 0, 0);strokeColor=rgb(0, 0, 0);fillColor=rgb(255, 255, 255);" parent="1" vertex="1">
          <mxGeometry x="-145" y="-200" width="150" height="40" as="geometry" />
        </mxCell>
        <mxCell id="AcRuhjQtrq6F4DFQvBhn-201" style="edgeStyle=elbowEdgeStyle;elbow=vertical;html=1;startArrow=none;startFill=0;" parent="1" source="159" target="163" edge="1">
          <mxGeometry relative="1" as="geometry">
            <Array as="points">
              <mxPoint x="-77" y="-250" />
            </Array>
          </mxGeometry>
        </mxCell>
        <mxCell id="159" value="Manager Selects&lt;br&gt;Edit User" style="verticalLabelPosition=middle;verticalAlign=top;html=1;shape=trapezoid;perimeter=trapezoidPerimeter;whiteSpace=wrap;size=0.23;arcSize=10;flipV=1;labelPosition=center;align=center;fontFamily=Helvetica;fontSize=12;fontColor=rgb(0, 0, 0);strokeColor=rgb(0, 0, 0);fillColor=rgb(255, 255, 255);" parent="1" vertex="1">
          <mxGeometry x="-140" y="-240" width="150" height="40" as="geometry" />
        </mxCell>
        <mxCell id="AcRuhjQtrq6F4DFQvBhn-202" style="edgeStyle=elbowEdgeStyle;elbow=vertical;html=1;exitX=0;exitY=0.5;exitDx=0;exitDy=0;entryX=0;entryY=0.5;entryDx=0;entryDy=0;startArrow=none;startFill=0;" parent="1" source="163" target="166" edge="1">
          <mxGeometry relative="1" as="geometry">
            <Array as="points">
              <mxPoint x="-160" y="-300" />
              <mxPoint x="-150" y="-320" />
              <mxPoint y="-330" />
            </Array>
          </mxGeometry>
        </mxCell>
        <mxCell id="163" value="Edit User Modal&lt;br&gt;/userManagement" style="whiteSpace=wrap;html=1;rounded=1;" parent="1" vertex="1">
          <mxGeometry x="-132.5" y="-320" width="135" height="60" as="geometry" />
        </mxCell>
        <mxCell id="171" value="" style="edgeStyle=orthogonalEdgeStyle;html=1;startArrow=none;startFill=0;" parent="1" source="166" target="170" edge="1">
          <mxGeometry relative="1" as="geometry">
            <Array as="points">
              <mxPoint x="217" y="-320" />
            </Array>
          </mxGeometry>
        </mxCell>
        <mxCell id="166" value="Manager&amp;nbsp;&lt;br&gt;Confirms/Submit" style="verticalLabelPosition=middle;verticalAlign=top;html=1;shape=trapezoid;perimeter=trapezoidPerimeter;whiteSpace=wrap;size=0.23;arcSize=10;flipV=1;labelPosition=center;align=center;fontFamily=Helvetica;fontSize=12;fontColor=rgb(0, 0, 0);strokeColor=rgb(0, 0, 0);fillColor=rgb(255, 255, 255);" parent="1" vertex="1">
          <mxGeometry x="-7.5" y="-350" width="150" height="40" as="geometry" />
        </mxCell>
        <mxCell id="172" style="edgeStyle=orthogonalEdgeStyle;html=1;startArrow=none;startFill=0;" parent="1" source="170" edge="1">
          <mxGeometry relative="1" as="geometry">
            <mxPoint x="225" as="targetPoint" />
            <Array as="points">
              <mxPoint x="240" y="-260" />
              <mxPoint x="240" />
            </Array>
          </mxGeometry>
        </mxCell>
        <mxCell id="170" value="HTTP/PUT&lt;br&gt;/api/user/:id&lt;br&gt;req.body.json{data}" style="shape=process;whiteSpace=wrap;html=1;backgroundOutline=1;" parent="1" vertex="1">
          <mxGeometry x="142.5" y="-310" width="150" height="60" as="geometry" />
        </mxCell>
        <mxCell id="185" style="edgeStyle=orthogonalEdgeStyle;html=1;startArrow=none;startFill=0;" parent="1" source="173" target="174" edge="1">
          <mxGeometry relative="1" as="geometry" />
        </mxCell>
        <mxCell id="173" value="Edit Tool Modal&lt;br&gt;/dashboard" style="whiteSpace=wrap;html=1;rounded=1;fillColor=#fff2cc;strokeColor=#d6b656;" parent="1" vertex="1">
          <mxGeometry x="22.5" y="660" width="120" height="60" as="geometry" />
        </mxCell>
        <mxCell id="189" style="edgeStyle=orthogonalEdgeStyle;html=1;entryX=0.5;entryY=1;entryDx=0;entryDy=0;startArrow=none;startFill=0;" parent="1" source="174" target="91" edge="1">
          <mxGeometry relative="1" as="geometry">
            <mxPoint x="401.1500000000001" y="720.8400000000001" as="targetPoint" />
          </mxGeometry>
        </mxCell>
        <mxCell id="174" value="User Confirms&lt;br&gt;Submit" style="verticalLabelPosition=middle;verticalAlign=top;html=1;shape=trapezoid;perimeter=trapezoidPerimeter;whiteSpace=wrap;size=0.23;arcSize=10;flipV=1;labelPosition=center;align=center;fontFamily=Helvetica;fontSize=12;fontColor=rgb(0, 0, 0);strokeColor=rgb(0, 0, 0);fillColor=rgb(255, 255, 255);" parent="1" vertex="1">
          <mxGeometry x="92.5" y="740" width="155" height="40" as="geometry" />
        </mxCell>
        <mxCell id="184" value="" style="edgeStyle=orthogonalEdgeStyle;html=1;startArrow=none;startFill=0;" parent="1" source="176" target="183" edge="1">
          <mxGeometry relative="1" as="geometry" />
        </mxCell>
        <mxCell id="176" value="User Selects&lt;br&gt;Mark Inactive" style="verticalLabelPosition=middle;verticalAlign=top;html=1;shape=trapezoid;perimeter=trapezoidPerimeter;whiteSpace=wrap;size=0.23;arcSize=10;flipV=1;labelPosition=center;align=center;fontFamily=Helvetica;fontSize=12;fontColor=#000000;strokeColor=#BD7000;fillColor=#f0a30a;" parent="1" vertex="1">
          <mxGeometry x="160" y="600" width="155" height="40" as="geometry" />
        </mxCell>
        <mxCell id="186" style="edgeStyle=orthogonalEdgeStyle;html=1;startArrow=none;startFill=0;" parent="1" source="183" target="174" edge="1">
          <mxGeometry relative="1" as="geometry" />
        </mxCell>
        <mxCell id="183" value="Confirm Mark Inactive&lt;br&gt;/dashboard&lt;br&gt;#confirmInactiveModal" style="whiteSpace=wrap;html=1;rounded=1;fillColor=#f0a30a;fontColor=#000000;strokeColor=#BD7000;" parent="1" vertex="1">
          <mxGeometry x="177.5" y="660" width="120" height="60" as="geometry" />
        </mxCell>
        <mxCell id="AcRuhjQtrq6F4DFQvBhn-197" value="Manager Context API Calls" style="swimlane;fontStyle=0;childLayout=stackLayout;horizontal=1;startSize=30;horizontalStack=0;resizeParent=1;resizeParentMax=0;resizeLast=0;collapsible=1;marginBottom=0;fillColor=#B3B3B3;opacity=60;swimlaneFillColor=#FFFFCC;" parent="1" vertex="1">
          <mxGeometry x="-663.5" y="-330" width="307.5" height="120" as="geometry" />
        </mxCell>
        <mxCell id="AcRuhjQtrq6F4DFQvBhn-198" value="GET - /api/user - get all users to populate the table" style="text;strokeColor=none;fillColor=none;align=left;verticalAlign=middle;spacingLeft=4;spacingRight=4;overflow=hidden;points=[[0,0.5],[1,0.5]];portConstraint=eastwest;rotatable=0;opacity=30;" parent="AcRuhjQtrq6F4DFQvBhn-197" vertex="1">
          <mxGeometry y="30" width="307.5" height="30" as="geometry" />
        </mxCell>
        <mxCell id="AcRuhjQtrq6F4DFQvBhn-199" value="POST - /api/user - create a new user" style="text;strokeColor=none;fillColor=none;align=left;verticalAlign=middle;spacingLeft=4;spacingRight=4;overflow=hidden;points=[[0,0.5],[1,0.5]];portConstraint=eastwest;rotatable=0;opacity=30;" parent="AcRuhjQtrq6F4DFQvBhn-197" vertex="1">
          <mxGeometry y="60" width="307.5" height="30" as="geometry" />
        </mxCell>
        <mxCell id="AcRuhjQtrq6F4DFQvBhn-200" value="PUT - /api/user/:id - update user with :id" style="text;strokeColor=none;fillColor=none;align=left;verticalAlign=middle;spacingLeft=4;spacingRight=4;overflow=hidden;points=[[0,0.5],[1,0.5]];portConstraint=eastwest;rotatable=0;opacity=30;" parent="AcRuhjQtrq6F4DFQvBhn-197" vertex="1">
          <mxGeometry y="90" width="307.5" height="30" as="geometry" />
        </mxCell>
        <mxCell id="AcRuhjQtrq6F4DFQvBhn-203" value="User Context - API Calls" style="swimlane;fontStyle=0;childLayout=stackLayout;horizontal=1;startSize=30;horizontalStack=0;resizeParent=1;resizeParentMax=0;resizeLast=0;collapsible=1;marginBottom=0;fillColor=#B3B3B3;opacity=60;swimlaneFillColor=#CCE5FF;" parent="1" vertex="1">
          <mxGeometry x="-826" y="-210" width="470" height="320" as="geometry" />
        </mxCell>
        <mxCell id="AcRuhjQtrq6F4DFQvBhn-205" value="GET - /api/tool  -  Returns a tool based on _id and serialNumber values in JSON body" style="text;strokeColor=none;fillColor=none;align=left;verticalAlign=middle;spacingLeft=4;spacingRight=4;overflow=hidden;points=[[0,0.5],[1,0.5]];portConstraint=eastwest;rotatable=0;opacity=30;" parent="AcRuhjQtrq6F4DFQvBhn-203" vertex="1">
          <mxGeometry y="30" width="470" height="30" as="geometry" />
        </mxCell>
        <mxCell id="AcRuhjQtrq6F4DFQvBhn-204" value="GET - /api/tools -  Return all tools" style="text;strokeColor=none;fillColor=none;align=left;verticalAlign=middle;spacingLeft=4;spacingRight=4;overflow=hidden;points=[[0,0.5],[1,0.5]];portConstraint=eastwest;rotatable=0;opacity=30;" parent="AcRuhjQtrq6F4DFQvBhn-203" vertex="1">
          <mxGeometry y="60" width="470" height="30" as="geometry" />
        </mxCell>
        <mxCell id="AcRuhjQtrq6F4DFQvBhn-212" value="GET - /api/tools/search - Returns one or more tools based on JSON body, in                                       order of _id, serialNumber,barcode, serviceAssignment, status, " style="text;strokeColor=none;fillColor=none;align=left;verticalAlign=middle;spacingLeft=4;spacingRight=4;overflow=hidden;points=[[0,0.5],[1,0.5]];portConstraint=eastwest;rotatable=0;opacity=30;whiteSpace=wrap;" parent="AcRuhjQtrq6F4DFQvBhn-203" vertex="1">
          <mxGeometry y="90" width="470" height="50" as="geometry" />
        </mxCell>
        <mxCell id="AcRuhjQtrq6F4DFQvBhn-207" value="POST - /api/tool  -  Create a new tool based in the JSON body" style="text;strokeColor=none;fillColor=none;align=left;verticalAlign=middle;spacingLeft=4;spacingRight=4;overflow=hidden;points=[[0,0.5],[1,0.5]];portConstraint=eastwest;rotatable=0;opacity=30;" parent="AcRuhjQtrq6F4DFQvBhn-203" vertex="1">
          <mxGeometry y="140" width="470" height="30" as="geometry" />
        </mxCell>
        <mxCell id="AcRuhjQtrq6F4DFQvBhn-208" value="PUT - /api/tool  -  Update an existing tool based on the _id value in the JSON body" style="text;strokeColor=none;fillColor=none;align=left;verticalAlign=middle;spacingLeft=4;spacingRight=4;overflow=hidden;points=[[0,0.5],[1,0.5]];portConstraint=eastwest;rotatable=0;opacity=30;" parent="AcRuhjQtrq6F4DFQvBhn-203" vertex="1">
          <mxGeometry y="170" width="470" height="30" as="geometry" />
        </mxCell>
        <mxCell id="AcRuhjQtrq6F4DFQvBhn-209" value="--------------------------------------------------------------------------------------------------------" style="text;strokeColor=none;fillColor=none;align=left;verticalAlign=middle;spacingLeft=4;spacingRight=4;overflow=hidden;points=[[0,0.5],[1,0.5]];portConstraint=eastwest;rotatable=0;opacity=30;" parent="AcRuhjQtrq6F4DFQvBhn-203" vertex="1">
          <mxGeometry y="200" width="470" height="30" as="geometry" />
        </mxCell>
        <mxCell id="AcRuhjQtrq6F4DFQvBhn-210" value="GET - /api/user - Returns the logged-in user&#39;s details " style="text;strokeColor=none;fillColor=none;align=left;verticalAlign=middle;spacingLeft=4;spacingRight=4;overflow=hidden;points=[[0,0.5],[1,0.5]];portConstraint=eastwest;rotatable=0;opacity=30;" parent="AcRuhjQtrq6F4DFQvBhn-203" vertex="1">
          <mxGeometry y="230" width="470" height="30" as="geometry" />
        </mxCell>
        <mxCell id="AcRuhjQtrq6F4DFQvBhn-214" value="PUT - /api/user - Updates the currently logged in user&#39;s password " style="text;strokeColor=none;fillColor=none;align=left;verticalAlign=middle;spacingLeft=4;spacingRight=4;overflow=hidden;points=[[0,0.5],[1,0.5]];portConstraint=eastwest;rotatable=0;opacity=30;" parent="AcRuhjQtrq6F4DFQvBhn-203" vertex="1">
          <mxGeometry y="260" width="470" height="30" as="geometry" />
        </mxCell>
        <mxCell id="AcRuhjQtrq6F4DFQvBhn-213" value="------------------------------------------------------------------------------------------------------" style="text;strokeColor=none;fillColor=none;align=left;verticalAlign=middle;spacingLeft=4;spacingRight=4;overflow=hidden;points=[[0,0.5],[1,0.5]];portConstraint=eastwest;rotatable=0;opacity=30;" parent="AcRuhjQtrq6F4DFQvBhn-203" vertex="1">
          <mxGeometry y="290" width="470" height="30" as="geometry" />
        </mxCell>
      </root>
    </mxGraphModel>
  </diagram>
  <diagram name="Copy of BusinessLogicTreeAPI" id="2UW4M6E541RXlkOdIHo6">
    <mxGraphModel dx="2284" dy="1814" grid="1" gridSize="10" guides="1" tooltips="1" connect="1" arrows="1" fold="1" page="1" pageScale="1" pageWidth="850" pageHeight="1100" math="0" shadow="0">
      <root>
        <mxCell id="Z0vzz4pzqoTiOcJpV1Gm-0" />
        <mxCell id="Z0vzz4pzqoTiOcJpV1Gm-1" parent="Z0vzz4pzqoTiOcJpV1Gm-0" />
        <mxCell id="Z0vzz4pzqoTiOcJpV1Gm-2" value="" style="rounded=0;whiteSpace=wrap;html=1;fillColor=#dae8fc;opacity=30;strokeColor=#6c8ebf;rotation=90;" vertex="1" parent="Z0vzz4pzqoTiOcJpV1Gm-1">
          <mxGeometry x="239.5" y="277.5" width="680" height="535" as="geometry" />
        </mxCell>
        <mxCell id="Z0vzz4pzqoTiOcJpV1Gm-3" value="" style="rounded=0;whiteSpace=wrap;html=1;fillColor=#dae8fc;opacity=30;strokeColor=#6c8ebf;" vertex="1" parent="Z0vzz4pzqoTiOcJpV1Gm-1">
          <mxGeometry x="-560" y="110" width="880" height="770" as="geometry" />
        </mxCell>
        <mxCell id="Z0vzz4pzqoTiOcJpV1Gm-4" value="" style="rounded=0;whiteSpace=wrap;html=1;fillColor=#f5f5f5;opacity=30;strokeColor=#666666;fontColor=#333333;" vertex="1" parent="Z0vzz4pzqoTiOcJpV1Gm-1">
          <mxGeometry x="310" y="-70" width="540" height="280" as="geometry" />
        </mxCell>
        <mxCell id="Z0vzz4pzqoTiOcJpV1Gm-5" value="" style="edgeStyle=none;html=1;" edge="1" parent="Z0vzz4pzqoTiOcJpV1Gm-1" source="Z0vzz4pzqoTiOcJpV1Gm-8" target="Z0vzz4pzqoTiOcJpV1Gm-14">
          <mxGeometry relative="1" as="geometry" />
        </mxCell>
        <mxCell id="Z0vzz4pzqoTiOcJpV1Gm-6" value="" style="edgeStyle=none;html=1;" edge="1" parent="Z0vzz4pzqoTiOcJpV1Gm-1" source="Z0vzz4pzqoTiOcJpV1Gm-8" target="Z0vzz4pzqoTiOcJpV1Gm-17">
          <mxGeometry relative="1" as="geometry">
            <Array as="points">
              <mxPoint x="350" y="70" />
            </Array>
          </mxGeometry>
        </mxCell>
        <mxCell id="Z0vzz4pzqoTiOcJpV1Gm-7" value="No" style="edgeLabel;html=1;align=center;verticalAlign=middle;resizable=0;points=[];" vertex="1" connectable="0" parent="Z0vzz4pzqoTiOcJpV1Gm-6">
          <mxGeometry x="-0.3667" y="-1" relative="1" as="geometry">
            <mxPoint as="offset" />
          </mxGeometry>
        </mxCell>
        <mxCell id="Z0vzz4pzqoTiOcJpV1Gm-8" value="Auth&#39;d?" style="rhombus;whiteSpace=wrap;html=1;rounded=1;" vertex="1" parent="Z0vzz4pzqoTiOcJpV1Gm-1">
          <mxGeometry x="310" y="120" width="80" height="80" as="geometry" />
        </mxCell>
        <mxCell id="Z0vzz4pzqoTiOcJpV1Gm-10" value="" style="edgeStyle=orthogonalEdgeStyle;html=1;startArrow=none;startFill=0;" edge="1" parent="Z0vzz4pzqoTiOcJpV1Gm-1" target="Z0vzz4pzqoTiOcJpV1Gm-39">
          <mxGeometry relative="1" as="geometry">
            <mxPoint x="400" y="260" as="sourcePoint" />
          </mxGeometry>
        </mxCell>
        <mxCell id="Z0vzz4pzqoTiOcJpV1Gm-12" style="edgeStyle=orthogonalEdgeStyle;html=1;entryX=1;entryY=0.5;entryDx=0;entryDy=0;startArrow=none;startFill=0;exitX=0;exitY=0.5;exitDx=0;exitDy=0;" edge="1" parent="Z0vzz4pzqoTiOcJpV1Gm-1" source="Z0vzz4pzqoTiOcJpV1Gm-14" target="Z0vzz4pzqoTiOcJpV1Gm-63">
          <mxGeometry relative="1" as="geometry">
            <Array as="points">
              <mxPoint x="260" y="270" />
              <mxPoint x="260" y="150" />
              <mxPoint x="230" y="150" />
            </Array>
          </mxGeometry>
        </mxCell>
        <mxCell id="Z0vzz4pzqoTiOcJpV1Gm-13" style="edgeStyle=orthogonalEdgeStyle;html=1;entryX=1;entryY=0.75;entryDx=0;entryDy=0;startArrow=none;startFill=0;" edge="1" parent="Z0vzz4pzqoTiOcJpV1Gm-1" source="Z0vzz4pzqoTiOcJpV1Gm-14" target="Z0vzz4pzqoTiOcJpV1Gm-92">
          <mxGeometry relative="1" as="geometry">
            <Array as="points">
              <mxPoint x="260" y="270" />
              <mxPoint x="260" y="87" />
            </Array>
          </mxGeometry>
        </mxCell>
        <mxCell id="ltqC82jdDxfd06jt5gRL-8" style="edgeStyle=orthogonalEdgeStyle;rounded=1;orthogonalLoop=1;jettySize=auto;html=1;entryX=1;entryY=0.5;entryDx=0;entryDy=0;" edge="1" parent="Z0vzz4pzqoTiOcJpV1Gm-1" source="Z0vzz4pzqoTiOcJpV1Gm-14" target="Z0vzz4pzqoTiOcJpV1Gm-53">
          <mxGeometry relative="1" as="geometry">
            <Array as="points">
              <mxPoint x="348" y="350" />
            </Array>
          </mxGeometry>
        </mxCell>
        <mxCell id="ltqC82jdDxfd06jt5gRL-9" style="edgeStyle=orthogonalEdgeStyle;rounded=1;orthogonalLoop=1;jettySize=auto;html=1;" edge="1" parent="Z0vzz4pzqoTiOcJpV1Gm-1" source="Z0vzz4pzqoTiOcJpV1Gm-14">
          <mxGeometry relative="1" as="geometry">
            <mxPoint x="304" y="420" as="targetPoint" />
            <Array as="points">
              <mxPoint x="348" y="420" />
            </Array>
          </mxGeometry>
        </mxCell>
        <mxCell id="ltqC82jdDxfd06jt5gRL-10" style="edgeStyle=orthogonalEdgeStyle;rounded=1;orthogonalLoop=1;jettySize=auto;html=1;entryX=1;entryY=0.5;entryDx=0;entryDy=0;" edge="1" parent="Z0vzz4pzqoTiOcJpV1Gm-1" source="Z0vzz4pzqoTiOcJpV1Gm-14" target="Z0vzz4pzqoTiOcJpV1Gm-27">
          <mxGeometry relative="1" as="geometry">
            <Array as="points">
              <mxPoint x="348" y="475" />
            </Array>
          </mxGeometry>
        </mxCell>
        <mxCell id="ltqC82jdDxfd06jt5gRL-11" style="edgeStyle=orthogonalEdgeStyle;rounded=1;orthogonalLoop=1;jettySize=auto;html=1;entryX=1;entryY=0.5;entryDx=0;entryDy=0;" edge="1" parent="Z0vzz4pzqoTiOcJpV1Gm-1" source="Z0vzz4pzqoTiOcJpV1Gm-14" target="Z0vzz4pzqoTiOcJpV1Gm-125">
          <mxGeometry relative="1" as="geometry">
            <Array as="points">
              <mxPoint x="348" y="537" />
            </Array>
          </mxGeometry>
        </mxCell>
        <mxCell id="Z0vzz4pzqoTiOcJpV1Gm-14" value="Dashboard&lt;br&gt;/dashboard&lt;br&gt;Default: Active Tools" style="whiteSpace=wrap;html=1;rounded=1;fillColor=#fff2cc;strokeColor=#d6b656;" vertex="1" parent="Z0vzz4pzqoTiOcJpV1Gm-1">
          <mxGeometry x="287.5" y="240" width="120" height="60" as="geometry" />
        </mxCell>
        <mxCell id="Z0vzz4pzqoTiOcJpV1Gm-15" value="Yes" style="text;html=1;align=center;verticalAlign=middle;resizable=0;points=[];autosize=1;strokeColor=none;fillColor=none;" vertex="1" parent="Z0vzz4pzqoTiOcJpV1Gm-1">
          <mxGeometry x="350" y="200" width="40" height="20" as="geometry" />
        </mxCell>
        <mxCell id="Z0vzz4pzqoTiOcJpV1Gm-16" value="" style="edgeStyle=none;html=1;" edge="1" parent="Z0vzz4pzqoTiOcJpV1Gm-1" source="Z0vzz4pzqoTiOcJpV1Gm-17" target="Z0vzz4pzqoTiOcJpV1Gm-19">
          <mxGeometry relative="1" as="geometry" />
        </mxCell>
        <mxCell id="Z0vzz4pzqoTiOcJpV1Gm-17" value="Index/Homepage&lt;br&gt;/" style="whiteSpace=wrap;html=1;rounded=1;fillColor=#fff2cc;strokeColor=#d6b656;" vertex="1" parent="Z0vzz4pzqoTiOcJpV1Gm-1">
          <mxGeometry x="625" y="40" width="120" height="60" as="geometry" />
        </mxCell>
        <mxCell id="Z0vzz4pzqoTiOcJpV1Gm-18" value="" style="edgeStyle=none;html=1;" edge="1" parent="Z0vzz4pzqoTiOcJpV1Gm-1" source="Z0vzz4pzqoTiOcJpV1Gm-19" target="Z0vzz4pzqoTiOcJpV1Gm-21">
          <mxGeometry relative="1" as="geometry" />
        </mxCell>
        <mxCell id="Z0vzz4pzqoTiOcJpV1Gm-19" value="Login Page&lt;br&gt;/login" style="whiteSpace=wrap;html=1;rounded=1;fillColor=#d5e8d4;strokeColor=#82b366;" vertex="1" parent="Z0vzz4pzqoTiOcJpV1Gm-1">
          <mxGeometry x="625" y="130" width="120" height="60" as="geometry" />
        </mxCell>
        <mxCell id="Z0vzz4pzqoTiOcJpV1Gm-20" style="edgeStyle=orthogonalEdgeStyle;html=1;entryX=1;entryY=0.5;entryDx=0;entryDy=0;startArrow=none;startFill=0;" edge="1" parent="Z0vzz4pzqoTiOcJpV1Gm-1" source="Z0vzz4pzqoTiOcJpV1Gm-21" target="Z0vzz4pzqoTiOcJpV1Gm-8">
          <mxGeometry relative="1" as="geometry" />
        </mxCell>
        <mxCell id="Z0vzz4pzqoTiOcJpV1Gm-21" value="Auth via Passport" style="shape=process;whiteSpace=wrap;html=1;backgroundOutline=1;fillColor=#d5e8d4;strokeColor=#82b366;" vertex="1" parent="Z0vzz4pzqoTiOcJpV1Gm-1">
          <mxGeometry x="440" y="130" width="120" height="60" as="geometry" />
        </mxCell>
        <mxCell id="ltqC82jdDxfd06jt5gRL-6" style="edgeStyle=orthogonalEdgeStyle;rounded=1;orthogonalLoop=1;jettySize=auto;html=1;entryX=1;entryY=0.5;entryDx=0;entryDy=0;" edge="1" parent="Z0vzz4pzqoTiOcJpV1Gm-1" source="Z0vzz4pzqoTiOcJpV1Gm-27" target="Z0vzz4pzqoTiOcJpV1Gm-31">
          <mxGeometry relative="1" as="geometry" />
        </mxCell>
        <mxCell id="Z0vzz4pzqoTiOcJpV1Gm-27" value="User Selects&lt;br&gt;&amp;nbsp;Search Button" style="verticalLabelPosition=middle;verticalAlign=middle;html=1;shape=trapezoid;perimeter=trapezoidPerimeter;whiteSpace=wrap;size=0.23;arcSize=10;flipV=1;labelPosition=center;align=center;fontFamily=Helvetica;fontSize=12;strokeColor=#82b366;fillColor=#d5e8d4;" vertex="1" parent="Z0vzz4pzqoTiOcJpV1Gm-1">
          <mxGeometry x="175" y="455" width="150" height="40" as="geometry" />
        </mxCell>
        <mxCell id="ltqC82jdDxfd06jt5gRL-20" value="" style="edgeStyle=orthogonalEdgeStyle;rounded=1;orthogonalLoop=1;jettySize=auto;html=1;" edge="1" parent="Z0vzz4pzqoTiOcJpV1Gm-1" source="Z0vzz4pzqoTiOcJpV1Gm-29" target="Z0vzz4pzqoTiOcJpV1Gm-35">
          <mxGeometry relative="1" as="geometry" />
        </mxCell>
        <mxCell id="Z0vzz4pzqoTiOcJpV1Gm-29" value="User Submits &lt;br&gt;Search&amp;nbsp;" style="verticalLabelPosition=middle;verticalAlign=top;html=1;shape=trapezoid;perimeter=trapezoidPerimeter;whiteSpace=wrap;size=0.23;arcSize=10;flipV=1;labelPosition=center;align=center;fontFamily=Helvetica;fontSize=12;strokeColor=#d6b656;fillColor=#fff2cc;" vertex="1" parent="Z0vzz4pzqoTiOcJpV1Gm-1">
          <mxGeometry x="-175" y="455" width="155" height="40" as="geometry" />
        </mxCell>
        <mxCell id="ltqC82jdDxfd06jt5gRL-27" style="edgeStyle=orthogonalEdgeStyle;rounded=1;orthogonalLoop=1;jettySize=auto;html=1;entryX=0;entryY=0.75;entryDx=0;entryDy=0;" edge="1" parent="Z0vzz4pzqoTiOcJpV1Gm-1" source="Z0vzz4pzqoTiOcJpV1Gm-35" target="Z0vzz4pzqoTiOcJpV1Gm-14">
          <mxGeometry relative="1" as="geometry">
            <Array as="points">
              <mxPoint x="-390" y="475" />
              <mxPoint x="-390" y="285" />
            </Array>
          </mxGeometry>
        </mxCell>
        <mxCell id="Z0vzz4pzqoTiOcJpV1Gm-35" value="HTTP/GET&lt;br&gt;/api/tools/searchByXX&lt;br&gt;req.body{data}" style="shape=process;whiteSpace=wrap;html=1;backgroundOutline=1;fillColor=#fff2cc;strokeColor=#d6b656;" vertex="1" parent="Z0vzz4pzqoTiOcJpV1Gm-1">
          <mxGeometry x="-360" y="445" width="160" height="60" as="geometry" />
        </mxCell>
        <mxCell id="ltqC82jdDxfd06jt5gRL-5" style="edgeStyle=orthogonalEdgeStyle;rounded=1;orthogonalLoop=1;jettySize=auto;html=1;entryX=1;entryY=0.5;entryDx=0;entryDy=0;" edge="1" parent="Z0vzz4pzqoTiOcJpV1Gm-1" source="Z0vzz4pzqoTiOcJpV1Gm-37" target="Z0vzz4pzqoTiOcJpV1Gm-121">
          <mxGeometry relative="1" as="geometry" />
        </mxCell>
        <mxCell id="Z0vzz4pzqoTiOcJpV1Gm-37" value="User Selects&lt;br&gt;Edit" style="verticalLabelPosition=middle;verticalAlign=top;html=1;shape=trapezoid;perimeter=trapezoidPerimeter;whiteSpace=wrap;size=0.23;arcSize=10;flipV=1;labelPosition=center;align=center;fontFamily=Helvetica;fontSize=12;strokeColor=#d6b656;fillColor=#fff2cc;" vertex="1" parent="Z0vzz4pzqoTiOcJpV1Gm-1">
          <mxGeometry x="172.5" y="392" width="155" height="40" as="geometry" />
        </mxCell>
        <mxCell id="Z0vzz4pzqoTiOcJpV1Gm-38" value="" style="edgeStyle=orthogonalEdgeStyle;html=1;startArrow=none;startFill=0;" edge="1" parent="Z0vzz4pzqoTiOcJpV1Gm-1" source="Z0vzz4pzqoTiOcJpV1Gm-39" target="Z0vzz4pzqoTiOcJpV1Gm-41">
          <mxGeometry relative="1" as="geometry" />
        </mxCell>
        <mxCell id="Z0vzz4pzqoTiOcJpV1Gm-39" value="User Selects&amp;nbsp;&lt;br&gt;Check-in/out" style="verticalLabelPosition=middle;verticalAlign=top;html=1;shape=trapezoid;perimeter=trapezoidPerimeter;whiteSpace=wrap;size=0.23;arcSize=10;flipV=1;labelPosition=center;align=center;fontFamily=Helvetica;fontSize=12;strokeColor=#82b366;fillColor=#d5e8d4;" vertex="1" parent="Z0vzz4pzqoTiOcJpV1Gm-1">
          <mxGeometry x="440" y="240" width="155" height="40" as="geometry" />
        </mxCell>
        <mxCell id="Z0vzz4pzqoTiOcJpV1Gm-40" value="" style="edgeStyle=orthogonalEdgeStyle;html=1;startArrow=none;startFill=0;" edge="1" parent="Z0vzz4pzqoTiOcJpV1Gm-1" source="Z0vzz4pzqoTiOcJpV1Gm-41" target="Z0vzz4pzqoTiOcJpV1Gm-42">
          <mxGeometry relative="1" as="geometry" />
        </mxCell>
        <mxCell id="Z0vzz4pzqoTiOcJpV1Gm-41" value="Check-In/Out Modal&amp;nbsp;&lt;br&gt;/dashboard" style="rounded=1;whiteSpace=wrap;html=1;fillColor=#fff2cc;strokeColor=#d6b656;" vertex="1" parent="Z0vzz4pzqoTiOcJpV1Gm-1">
          <mxGeometry x="620" y="230" width="120" height="60" as="geometry" />
        </mxCell>
        <mxCell id="Z0vzz4pzqoTiOcJpV1Gm-42" value="User Submits&amp;nbsp;&lt;br&gt;Form" style="verticalLabelPosition=middle;verticalAlign=top;html=1;shape=trapezoid;perimeter=trapezoidPerimeter;whiteSpace=wrap;size=0.23;arcSize=10;flipV=1;labelPosition=center;align=center;fontFamily=Helvetica;fontSize=12;strokeColor=#82b366;fillColor=#d5e8d4;" vertex="1" parent="Z0vzz4pzqoTiOcJpV1Gm-1">
          <mxGeometry x="602.5" y="320" width="155" height="40" as="geometry" />
        </mxCell>
        <mxCell id="Z0vzz4pzqoTiOcJpV1Gm-43" value="" style="edgeStyle=orthogonalEdgeStyle;html=1;startArrow=none;startFill=0;" edge="1" parent="Z0vzz4pzqoTiOcJpV1Gm-1" source="Z0vzz4pzqoTiOcJpV1Gm-42" target="Z0vzz4pzqoTiOcJpV1Gm-45">
          <mxGeometry relative="1" as="geometry">
            <mxPoint x="664.7388235294117" y="370" as="sourcePoint" />
          </mxGeometry>
        </mxCell>
        <mxCell id="Z0vzz4pzqoTiOcJpV1Gm-44" style="edgeStyle=orthogonalEdgeStyle;html=1;startArrow=none;startFill=0;" edge="1" parent="Z0vzz4pzqoTiOcJpV1Gm-1" source="Z0vzz4pzqoTiOcJpV1Gm-45" target="Z0vzz4pzqoTiOcJpV1Gm-47">
          <mxGeometry relative="1" as="geometry">
            <Array as="points">
              <mxPoint x="680" y="510" />
            </Array>
          </mxGeometry>
        </mxCell>
        <mxCell id="Z0vzz4pzqoTiOcJpV1Gm-45" value="HTTP/GET&lt;br&gt;/api/tool/search&lt;br&gt;Req.body.tools{data}" style="shape=process;whiteSpace=wrap;html=1;backgroundOutline=1;fillColor=#fff2cc;strokeColor=#d6b656;" vertex="1" parent="Z0vzz4pzqoTiOcJpV1Gm-1">
          <mxGeometry x="600" y="385" width="160" height="60" as="geometry" />
        </mxCell>
        <mxCell id="Z0vzz4pzqoTiOcJpV1Gm-46" value="" style="edgeStyle=orthogonalEdgeStyle;html=1;startArrow=none;startFill=0;" edge="1" parent="Z0vzz4pzqoTiOcJpV1Gm-1" source="Z0vzz4pzqoTiOcJpV1Gm-47" target="Z0vzz4pzqoTiOcJpV1Gm-49">
          <mxGeometry relative="1" as="geometry">
            <Array as="points">
              <mxPoint x="473" y="510" />
            </Array>
          </mxGeometry>
        </mxCell>
        <mxCell id="Z0vzz4pzqoTiOcJpV1Gm-47" value="Check-in/Out&lt;br&gt;Confirm Modal" style="rounded=1;whiteSpace=wrap;html=1;fillColor=#FF8000;strokeColor=#FF8000;" vertex="1" parent="Z0vzz4pzqoTiOcJpV1Gm-1">
          <mxGeometry x="515" y="480" width="120" height="60" as="geometry" />
        </mxCell>
        <mxCell id="ltqC82jdDxfd06jt5gRL-30" value="" style="edgeStyle=orthogonalEdgeStyle;rounded=1;orthogonalLoop=1;jettySize=auto;html=1;" edge="1" parent="Z0vzz4pzqoTiOcJpV1Gm-1" source="Z0vzz4pzqoTiOcJpV1Gm-49" target="Z0vzz4pzqoTiOcJpV1Gm-51">
          <mxGeometry relative="1" as="geometry" />
        </mxCell>
        <mxCell id="Z0vzz4pzqoTiOcJpV1Gm-49" value="User Submits&amp;nbsp;&lt;br&gt;Form" style="verticalLabelPosition=middle;verticalAlign=top;html=1;shape=trapezoid;perimeter=trapezoidPerimeter;whiteSpace=wrap;size=0.23;arcSize=10;flipV=1;labelPosition=center;align=center;fontFamily=Helvetica;fontSize=12;strokeColor=#d6b656;fillColor=#fff2cc;" vertex="1" parent="Z0vzz4pzqoTiOcJpV1Gm-1">
          <mxGeometry x="397.5" y="415" width="155" height="40" as="geometry" />
        </mxCell>
        <mxCell id="ltqC82jdDxfd06jt5gRL-1" style="edgeStyle=orthogonalEdgeStyle;rounded=1;orthogonalLoop=1;jettySize=auto;html=1;entryX=0.75;entryY=1;entryDx=0;entryDy=0;" edge="1" parent="Z0vzz4pzqoTiOcJpV1Gm-1" source="Z0vzz4pzqoTiOcJpV1Gm-51" target="Z0vzz4pzqoTiOcJpV1Gm-14">
          <mxGeometry relative="1" as="geometry">
            <Array as="points">
              <mxPoint x="378" y="350" />
            </Array>
          </mxGeometry>
        </mxCell>
        <mxCell id="Z0vzz4pzqoTiOcJpV1Gm-51" value="HTTP/PUT&lt;br&gt;/api/tool&lt;br&gt;Req.body.tools" style="shape=process;whiteSpace=wrap;html=1;backgroundOutline=1;fillColor=#fff2cc;strokeColor=#d6b656;size=0.1;" vertex="1" parent="Z0vzz4pzqoTiOcJpV1Gm-1">
          <mxGeometry x="400" y="320" width="150" height="60" as="geometry" />
        </mxCell>
        <mxCell id="ltqC82jdDxfd06jt5gRL-4" style="edgeStyle=orthogonalEdgeStyle;rounded=1;orthogonalLoop=1;jettySize=auto;html=1;entryX=1;entryY=0.5;entryDx=0;entryDy=0;" edge="1" parent="Z0vzz4pzqoTiOcJpV1Gm-1" source="Z0vzz4pzqoTiOcJpV1Gm-53" target="Z0vzz4pzqoTiOcJpV1Gm-55">
          <mxGeometry relative="1" as="geometry" />
        </mxCell>
        <mxCell id="Z0vzz4pzqoTiOcJpV1Gm-53" value="User Selects&amp;nbsp;&lt;br&gt;Create New" style="verticalLabelPosition=middle;verticalAlign=top;html=1;shape=trapezoid;perimeter=trapezoidPerimeter;whiteSpace=wrap;size=0.23;arcSize=10;flipV=1;labelPosition=center;align=center;fontFamily=Helvetica;fontSize=12;strokeColor=#82b366;fillColor=#d5e8d4;" vertex="1" parent="Z0vzz4pzqoTiOcJpV1Gm-1">
          <mxGeometry x="172.5" y="330" width="155" height="40" as="geometry" />
        </mxCell>
        <mxCell id="Z0vzz4pzqoTiOcJpV1Gm-54" value="" style="edgeStyle=orthogonalEdgeStyle;html=1;startArrow=none;startFill=0;" edge="1" parent="Z0vzz4pzqoTiOcJpV1Gm-1" source="Z0vzz4pzqoTiOcJpV1Gm-55" target="Z0vzz4pzqoTiOcJpV1Gm-57">
          <mxGeometry relative="1" as="geometry" />
        </mxCell>
        <mxCell id="Z0vzz4pzqoTiOcJpV1Gm-55" value="Create Tool Modal&lt;br&gt;/dashboard" style="rounded=1;whiteSpace=wrap;html=1;fillColor=#fff2cc;strokeColor=#d6b656;" vertex="1" parent="Z0vzz4pzqoTiOcJpV1Gm-1">
          <mxGeometry x="12.5" y="320" width="120" height="60" as="geometry" />
        </mxCell>
        <mxCell id="ltqC82jdDxfd06jt5gRL-14" style="edgeStyle=orthogonalEdgeStyle;rounded=1;orthogonalLoop=1;jettySize=auto;html=1;entryX=1;entryY=0.5;entryDx=0;entryDy=0;" edge="1" parent="Z0vzz4pzqoTiOcJpV1Gm-1" source="Z0vzz4pzqoTiOcJpV1Gm-57" target="Z0vzz4pzqoTiOcJpV1Gm-59">
          <mxGeometry relative="1" as="geometry" />
        </mxCell>
        <mxCell id="Z0vzz4pzqoTiOcJpV1Gm-57" value="User Submits&lt;br&gt;&amp;nbsp;Form" style="verticalLabelPosition=middle;verticalAlign=top;html=1;shape=trapezoid;perimeter=trapezoidPerimeter;whiteSpace=wrap;size=0.23;arcSize=10;flipV=1;labelPosition=center;align=center;fontFamily=Helvetica;fontSize=12;strokeColor=#82b366;fillColor=#d5e8d4;" vertex="1" parent="Z0vzz4pzqoTiOcJpV1Gm-1">
          <mxGeometry x="-175" y="330" width="155" height="40" as="geometry" />
        </mxCell>
        <mxCell id="ltqC82jdDxfd06jt5gRL-25" style="edgeStyle=orthogonalEdgeStyle;rounded=1;orthogonalLoop=1;jettySize=auto;html=1;entryX=0;entryY=0.75;entryDx=0;entryDy=0;" edge="1" parent="Z0vzz4pzqoTiOcJpV1Gm-1" source="Z0vzz4pzqoTiOcJpV1Gm-59" target="Z0vzz4pzqoTiOcJpV1Gm-14">
          <mxGeometry relative="1" as="geometry">
            <Array as="points">
              <mxPoint x="-390" y="350" />
              <mxPoint x="-390" y="285" />
            </Array>
          </mxGeometry>
        </mxCell>
        <mxCell id="Z0vzz4pzqoTiOcJpV1Gm-59" value="HTTP/POST&lt;br&gt;/api/tool/submit" style="shape=process;whiteSpace=wrap;html=1;backgroundOutline=1;fillColor=#fff2cc;strokeColor=#d6b656;" vertex="1" parent="Z0vzz4pzqoTiOcJpV1Gm-1">
          <mxGeometry x="-360" y="330" width="160" height="40" as="geometry" />
        </mxCell>
        <mxCell id="Z0vzz4pzqoTiOcJpV1Gm-60" value="" style="edgeStyle=orthogonalEdgeStyle;html=1;startArrow=none;startFill=0;" edge="1" parent="Z0vzz4pzqoTiOcJpV1Gm-1" source="Z0vzz4pzqoTiOcJpV1Gm-61" target="Z0vzz4pzqoTiOcJpV1Gm-17">
          <mxGeometry relative="1" as="geometry" />
        </mxCell>
        <mxCell id="Z0vzz4pzqoTiOcJpV1Gm-61" value="&lt;b&gt;START&lt;/b&gt;" style="strokeWidth=2;html=1;shape=mxgraph.flowchart.start_1;whiteSpace=wrap;fillColor=#d5e8d4;strokeColor=#82b366;" vertex="1" parent="Z0vzz4pzqoTiOcJpV1Gm-1">
          <mxGeometry x="635" y="-60" width="100" height="60" as="geometry" />
        </mxCell>
        <mxCell id="Z0vzz4pzqoTiOcJpV1Gm-62" style="edgeStyle=orthogonalEdgeStyle;html=1;entryX=1;entryY=0.5;entryDx=0;entryDy=0;startArrow=none;startFill=0;" edge="1" parent="Z0vzz4pzqoTiOcJpV1Gm-1" source="Z0vzz4pzqoTiOcJpV1Gm-63" target="Z0vzz4pzqoTiOcJpV1Gm-65">
          <mxGeometry relative="1" as="geometry" />
        </mxCell>
        <mxCell id="Z0vzz4pzqoTiOcJpV1Gm-63" value="User Selects&lt;br&gt;Profile" style="verticalLabelPosition=middle;verticalAlign=top;html=1;shape=trapezoid;perimeter=trapezoidPerimeter;whiteSpace=wrap;size=0.23;arcSize=10;flipV=1;labelPosition=center;align=center;fontFamily=Helvetica;fontSize=12;strokeColor=#82b366;fillColor=#d5e8d4;" vertex="1" parent="Z0vzz4pzqoTiOcJpV1Gm-1">
          <mxGeometry x="92.5" y="140" width="155" height="40" as="geometry" />
        </mxCell>
        <mxCell id="Z0vzz4pzqoTiOcJpV1Gm-64" style="edgeStyle=orthogonalEdgeStyle;html=1;entryX=1;entryY=0.5;entryDx=0;entryDy=0;startArrow=none;startFill=0;" edge="1" parent="Z0vzz4pzqoTiOcJpV1Gm-1" source="Z0vzz4pzqoTiOcJpV1Gm-65" target="Z0vzz4pzqoTiOcJpV1Gm-67">
          <mxGeometry relative="1" as="geometry" />
        </mxCell>
        <mxCell id="Z0vzz4pzqoTiOcJpV1Gm-65" value="HTTP/GET&lt;br&gt;/user/id&lt;br&gt;req.body.user" style="shape=process;whiteSpace=wrap;html=1;backgroundOutline=1;fillColor=#d5e8d4;strokeColor=#82b366;" vertex="1" parent="Z0vzz4pzqoTiOcJpV1Gm-1">
          <mxGeometry x="-82.5" y="130" width="150" height="60" as="geometry" />
        </mxCell>
        <mxCell id="Z0vzz4pzqoTiOcJpV1Gm-66" value="" style="edgeStyle=orthogonalEdgeStyle;html=1;startArrow=none;startFill=0;" edge="1" parent="Z0vzz4pzqoTiOcJpV1Gm-1" source="Z0vzz4pzqoTiOcJpV1Gm-67" target="Z0vzz4pzqoTiOcJpV1Gm-69">
          <mxGeometry relative="1" as="geometry" />
        </mxCell>
        <mxCell id="Z0vzz4pzqoTiOcJpV1Gm-67" value="User Profile&lt;br&gt;/dashboard/user/:id" style="whiteSpace=wrap;html=1;rounded=1;fillColor=#fff2cc;strokeColor=#d6b656;" vertex="1" parent="Z0vzz4pzqoTiOcJpV1Gm-1">
          <mxGeometry x="-270" y="130" width="135" height="60" as="geometry" />
        </mxCell>
        <mxCell id="Z0vzz4pzqoTiOcJpV1Gm-68" style="edgeStyle=orthogonalEdgeStyle;html=1;entryX=0.468;entryY=0.014;entryDx=0;entryDy=0;entryPerimeter=0;startArrow=none;startFill=0;" edge="1" parent="Z0vzz4pzqoTiOcJpV1Gm-1" source="Z0vzz4pzqoTiOcJpV1Gm-69" target="Z0vzz4pzqoTiOcJpV1Gm-82">
          <mxGeometry relative="1" as="geometry" />
        </mxCell>
        <mxCell id="Z0vzz4pzqoTiOcJpV1Gm-69" value="User Selects&lt;br&gt;Reset PW" style="verticalLabelPosition=middle;verticalAlign=top;html=1;shape=trapezoid;perimeter=trapezoidPerimeter;whiteSpace=wrap;size=0.23;arcSize=10;flipV=1;labelPosition=center;align=center;fontFamily=Helvetica;fontSize=12;fontColor=#000000;strokeColor=#C73500;fillColor=#fa6800;" vertex="1" parent="Z0vzz4pzqoTiOcJpV1Gm-1">
          <mxGeometry x="-505" y="140" width="155" height="40" as="geometry" />
        </mxCell>
        <mxCell id="Z0vzz4pzqoTiOcJpV1Gm-70" value="Legend" style="swimlane;fillColor=#B3B3B3;" vertex="1" parent="Z0vzz4pzqoTiOcJpV1Gm-1">
          <mxGeometry x="-570" y="680" width="500" height="200" as="geometry" />
        </mxCell>
        <mxCell id="Z0vzz4pzqoTiOcJpV1Gm-71" value="" style="rounded=0;whiteSpace=wrap;html=1;fillColor=#B3B3B3;opacity=30;" vertex="1" parent="Z0vzz4pzqoTiOcJpV1Gm-70">
          <mxGeometry y="23" width="500" height="177" as="geometry" />
        </mxCell>
        <mxCell id="Z0vzz4pzqoTiOcJpV1Gm-72" value="Page/Modal Name&lt;br&gt;/url/endpoint" style="whiteSpace=wrap;html=1;rounded=1;" vertex="1" parent="Z0vzz4pzqoTiOcJpV1Gm-70">
          <mxGeometry x="10" y="30" width="150" height="60" as="geometry" />
        </mxCell>
        <mxCell id="Z0vzz4pzqoTiOcJpV1Gm-73" value="User Interaction&lt;br&gt;or Decision" style="verticalLabelPosition=middle;verticalAlign=top;html=1;shape=trapezoid;perimeter=trapezoidPerimeter;whiteSpace=wrap;size=0.23;arcSize=10;flipV=1;labelPosition=center;align=center;fontFamily=Helvetica;fontSize=12;fontColor=rgb(0, 0, 0);strokeColor=rgb(0, 0, 0);fillColor=rgb(255, 255, 255);" vertex="1" parent="Z0vzz4pzqoTiOcJpV1Gm-70">
          <mxGeometry x="10" y="140" width="155" height="40" as="geometry" />
        </mxCell>
        <mxCell id="Z0vzz4pzqoTiOcJpV1Gm-74" value="Condition&lt;br&gt;Eval" style="rhombus;whiteSpace=wrap;html=1;rounded=1;" vertex="1" parent="Z0vzz4pzqoTiOcJpV1Gm-70">
          <mxGeometry x="220" y="30" width="80" height="80" as="geometry" />
        </mxCell>
        <mxCell id="Z0vzz4pzqoTiOcJpV1Gm-75" value="HTTP/METHOD&lt;br&gt;/api/endpoint&lt;br&gt;req.body.{dataObj}" style="shape=process;whiteSpace=wrap;html=1;backgroundOutline=1;" vertex="1" parent="Z0vzz4pzqoTiOcJpV1Gm-70">
          <mxGeometry x="190" y="130" width="150" height="60" as="geometry" />
        </mxCell>
        <mxCell id="Z0vzz4pzqoTiOcJpV1Gm-76" value="API Call" style="text;html=1;align=center;verticalAlign=middle;resizable=0;points=[];autosize=1;strokeColor=none;fillColor=none;fontStyle=1" vertex="1" parent="Z0vzz4pzqoTiOcJpV1Gm-70">
          <mxGeometry x="190" y="110" width="60" height="20" as="geometry" />
        </mxCell>
        <mxCell id="Z0vzz4pzqoTiOcJpV1Gm-77" value="&lt;b&gt;Created - Completed&lt;/b&gt;" style="rounded=0;whiteSpace=wrap;html=1;fillColor=#d5e8d4;strokeColor=#82b366;" vertex="1" parent="Z0vzz4pzqoTiOcJpV1Gm-70">
          <mxGeometry x="350" y="40" width="130" height="30" as="geometry" />
        </mxCell>
        <mxCell id="Z0vzz4pzqoTiOcJpV1Gm-78" value="&lt;b&gt;Created - Needs Work&lt;/b&gt;" style="rounded=0;whiteSpace=wrap;html=1;fillColor=#fff2cc;strokeColor=#d6b656;" vertex="1" parent="Z0vzz4pzqoTiOcJpV1Gm-70">
          <mxGeometry x="350" y="81.5" width="130" height="28.5" as="geometry" />
        </mxCell>
        <mxCell id="Z0vzz4pzqoTiOcJpV1Gm-79" value="&lt;b&gt;Not Created&lt;/b&gt;" style="rounded=0;whiteSpace=wrap;html=1;fillColor=#FF8000;strokeColor=#d79b00;" vertex="1" parent="Z0vzz4pzqoTiOcJpV1Gm-70">
          <mxGeometry x="350" y="120" width="130" height="28.5" as="geometry" />
        </mxCell>
        <mxCell id="Z0vzz4pzqoTiOcJpV1Gm-80" value="&lt;b&gt;Removed&lt;/b&gt;" style="rounded=0;whiteSpace=wrap;html=1;fillColor=#f8cecc;strokeColor=#b85450;" vertex="1" parent="Z0vzz4pzqoTiOcJpV1Gm-70">
          <mxGeometry x="350" y="161.5" width="130" height="28.5" as="geometry" />
        </mxCell>
        <mxCell id="Z0vzz4pzqoTiOcJpV1Gm-81" style="edgeStyle=orthogonalEdgeStyle;html=1;entryX=0;entryY=0.5;entryDx=0;entryDy=0;startArrow=none;startFill=0;" edge="1" parent="Z0vzz4pzqoTiOcJpV1Gm-1" source="Z0vzz4pzqoTiOcJpV1Gm-82" target="Z0vzz4pzqoTiOcJpV1Gm-84">
          <mxGeometry relative="1" as="geometry" />
        </mxCell>
        <mxCell id="Z0vzz4pzqoTiOcJpV1Gm-82" value="PW Reset Modal&lt;br&gt;/dashboard/user/:id" style="whiteSpace=wrap;html=1;rounded=1;fillColor=#f0a30a;fontColor=#000000;strokeColor=#BD7000;" vertex="1" parent="Z0vzz4pzqoTiOcJpV1Gm-1">
          <mxGeometry x="-491" y="205" width="135" height="60" as="geometry" />
        </mxCell>
        <mxCell id="Z0vzz4pzqoTiOcJpV1Gm-83" style="edgeStyle=orthogonalEdgeStyle;html=1;entryX=0;entryY=0.5;entryDx=0;entryDy=0;startArrow=none;startFill=0;" edge="1" parent="Z0vzz4pzqoTiOcJpV1Gm-1" source="Z0vzz4pzqoTiOcJpV1Gm-84" target="Z0vzz4pzqoTiOcJpV1Gm-86">
          <mxGeometry relative="1" as="geometry" />
        </mxCell>
        <mxCell id="Z0vzz4pzqoTiOcJpV1Gm-84" value="User Submits Form" style="verticalLabelPosition=middle;verticalAlign=top;html=1;shape=trapezoid;perimeter=trapezoidPerimeter;whiteSpace=wrap;size=0.23;arcSize=10;flipV=1;labelPosition=center;align=center;fontFamily=Helvetica;fontSize=12;fontColor=#000000;strokeColor=#BD7000;fillColor=#f0a30a;" vertex="1" parent="Z0vzz4pzqoTiOcJpV1Gm-1">
          <mxGeometry x="-285" y="220" width="155" height="30" as="geometry" />
        </mxCell>
        <mxCell id="Z0vzz4pzqoTiOcJpV1Gm-85" style="edgeStyle=orthogonalEdgeStyle;html=1;startArrow=none;startFill=0;entryX=0.5;entryY=1;entryDx=0;entryDy=0;" edge="1" parent="Z0vzz4pzqoTiOcJpV1Gm-1" source="Z0vzz4pzqoTiOcJpV1Gm-86" target="Z0vzz4pzqoTiOcJpV1Gm-65">
          <mxGeometry relative="1" as="geometry">
            <mxPoint x="-360" y="170" as="targetPoint" />
            <Array as="points">
              <mxPoint x="-7" y="210" />
            </Array>
          </mxGeometry>
        </mxCell>
        <mxCell id="Z0vzz4pzqoTiOcJpV1Gm-86" value="HTTP/PATCH&lt;br&gt;/api/user&lt;br&gt;req.body.json{data}" style="shape=process;whiteSpace=wrap;html=1;backgroundOutline=1;fillColor=#f0a30a;fontColor=#000000;strokeColor=#BD7000;" vertex="1" parent="Z0vzz4pzqoTiOcJpV1Gm-1">
          <mxGeometry x="-82.5" y="205" width="150" height="60" as="geometry" />
        </mxCell>
        <mxCell id="Z0vzz4pzqoTiOcJpV1Gm-87" value="Public Security Context" style="text;html=1;strokeColor=none;fillColor=none;align=center;verticalAlign=middle;whiteSpace=wrap;rounded=0;opacity=30;fontStyle=1" vertex="1" parent="Z0vzz4pzqoTiOcJpV1Gm-1">
          <mxGeometry x="310" y="-70" width="150" height="30" as="geometry" />
        </mxCell>
        <mxCell id="Z0vzz4pzqoTiOcJpV1Gm-88" value="" style="rounded=0;whiteSpace=wrap;html=1;fillColor=#ffe6cc;opacity=30;strokeColor=#d79b00;" vertex="1" parent="Z0vzz4pzqoTiOcJpV1Gm-1">
          <mxGeometry x="-350" y="-390" width="660" height="500" as="geometry" />
        </mxCell>
        <mxCell id="Z0vzz4pzqoTiOcJpV1Gm-89" value="Manager Security Context" style="text;html=1;strokeColor=none;fillColor=none;align=center;verticalAlign=middle;whiteSpace=wrap;rounded=0;opacity=30;fontStyle=1" vertex="1" parent="Z0vzz4pzqoTiOcJpV1Gm-1">
          <mxGeometry x="-350" y="-380" width="190" height="30" as="geometry" />
        </mxCell>
        <mxCell id="Z0vzz4pzqoTiOcJpV1Gm-90" value="User Security Context" style="text;html=1;strokeColor=none;fillColor=none;align=center;verticalAlign=middle;whiteSpace=wrap;rounded=0;opacity=30;fontStyle=1" vertex="1" parent="Z0vzz4pzqoTiOcJpV1Gm-1">
          <mxGeometry x="-580" y="110" width="165" height="30" as="geometry" />
        </mxCell>
        <mxCell id="Z0vzz4pzqoTiOcJpV1Gm-91" value="" style="edgeStyle=orthogonalEdgeStyle;html=1;startArrow=none;startFill=0;entryX=0.5;entryY=1;entryDx=0;entryDy=0;" edge="1" parent="Z0vzz4pzqoTiOcJpV1Gm-1" source="Z0vzz4pzqoTiOcJpV1Gm-92" target="Z0vzz4pzqoTiOcJpV1Gm-94">
          <mxGeometry relative="1" as="geometry">
            <mxPoint x="150" y="10.000000000000227" as="targetPoint" />
          </mxGeometry>
        </mxCell>
        <mxCell id="Z0vzz4pzqoTiOcJpV1Gm-92" value="Manager Selects&amp;nbsp;&lt;br&gt;User Management" style="verticalLabelPosition=middle;verticalAlign=top;html=1;shape=trapezoid;perimeter=trapezoidPerimeter;whiteSpace=wrap;size=0.23;arcSize=10;flipV=1;labelPosition=center;align=center;fontFamily=Helvetica;fontSize=12;strokeColor=#d6b656;fillColor=#fff2cc;" vertex="1" parent="Z0vzz4pzqoTiOcJpV1Gm-1">
          <mxGeometry x="50" y="60" width="200" height="40" as="geometry" />
        </mxCell>
        <mxCell id="Z0vzz4pzqoTiOcJpV1Gm-93" value="" style="edgeStyle=orthogonalEdgeStyle;html=1;startArrow=none;startFill=0;" edge="1" parent="Z0vzz4pzqoTiOcJpV1Gm-1" source="Z0vzz4pzqoTiOcJpV1Gm-94" target="Z0vzz4pzqoTiOcJpV1Gm-99">
          <mxGeometry relative="1" as="geometry" />
        </mxCell>
        <mxCell id="Z0vzz4pzqoTiOcJpV1Gm-94" value="HTTP/GET&lt;br&gt;/api/user&lt;br&gt;req.body.json{data}" style="shape=process;whiteSpace=wrap;html=1;backgroundOutline=1;fillColor=#fff2cc;strokeColor=#d6b656;" vertex="1" parent="Z0vzz4pzqoTiOcJpV1Gm-1">
          <mxGeometry x="75" y="-30" width="150" height="60" as="geometry" />
        </mxCell>
        <mxCell id="Z0vzz4pzqoTiOcJpV1Gm-95" value="" style="edgeStyle=orthogonalEdgeStyle;html=1;startArrow=none;startFill=0;" edge="1" parent="Z0vzz4pzqoTiOcJpV1Gm-1" source="Z0vzz4pzqoTiOcJpV1Gm-99" target="Z0vzz4pzqoTiOcJpV1Gm-101">
          <mxGeometry relative="1" as="geometry" />
        </mxCell>
        <mxCell id="Z0vzz4pzqoTiOcJpV1Gm-96" style="edgeStyle=orthogonalEdgeStyle;html=1;startArrow=none;startFill=0;entryX=1;entryY=0.5;entryDx=0;entryDy=0;" edge="1" parent="Z0vzz4pzqoTiOcJpV1Gm-1" source="Z0vzz4pzqoTiOcJpV1Gm-99" target="Z0vzz4pzqoTiOcJpV1Gm-109">
          <mxGeometry relative="1" as="geometry">
            <Array as="points">
              <mxPoint x="140" y="-140" />
            </Array>
          </mxGeometry>
        </mxCell>
        <mxCell id="Z0vzz4pzqoTiOcJpV1Gm-97" style="edgeStyle=orthogonalEdgeStyle;html=1;entryX=1;entryY=0.5;entryDx=0;entryDy=0;startArrow=none;startFill=0;" edge="1" parent="Z0vzz4pzqoTiOcJpV1Gm-1" source="Z0vzz4pzqoTiOcJpV1Gm-99" target="Z0vzz4pzqoTiOcJpV1Gm-111">
          <mxGeometry relative="1" as="geometry">
            <Array as="points">
              <mxPoint x="140" y="-180" />
            </Array>
          </mxGeometry>
        </mxCell>
        <mxCell id="Z0vzz4pzqoTiOcJpV1Gm-98" style="edgeStyle=orthogonalEdgeStyle;html=1;entryX=1;entryY=0.5;entryDx=0;entryDy=0;startArrow=none;startFill=0;" edge="1" parent="Z0vzz4pzqoTiOcJpV1Gm-1" source="Z0vzz4pzqoTiOcJpV1Gm-99" target="Z0vzz4pzqoTiOcJpV1Gm-113">
          <mxGeometry relative="1" as="geometry">
            <Array as="points">
              <mxPoint x="140" y="-220" />
            </Array>
          </mxGeometry>
        </mxCell>
        <mxCell id="Z0vzz4pzqoTiOcJpV1Gm-99" value="User Management&lt;br&gt;/userManagement" style="whiteSpace=wrap;html=1;rounded=1;fillColor=#fff2cc;strokeColor=#d6b656;" vertex="1" parent="Z0vzz4pzqoTiOcJpV1Gm-1">
          <mxGeometry x="82.5" y="-120" width="135" height="60" as="geometry" />
        </mxCell>
        <mxCell id="Z0vzz4pzqoTiOcJpV1Gm-100" value="" style="edgeStyle=orthogonalEdgeStyle;html=1;startArrow=none;startFill=0;" edge="1" parent="Z0vzz4pzqoTiOcJpV1Gm-1" source="Z0vzz4pzqoTiOcJpV1Gm-101" target="Z0vzz4pzqoTiOcJpV1Gm-103">
          <mxGeometry relative="1" as="geometry" />
        </mxCell>
        <mxCell id="Z0vzz4pzqoTiOcJpV1Gm-101" value="Manager Selects&amp;nbsp;&lt;br&gt;Create User&amp;nbsp;" style="verticalLabelPosition=middle;verticalAlign=top;html=1;shape=trapezoid;perimeter=trapezoidPerimeter;whiteSpace=wrap;size=0.23;arcSize=10;flipV=1;labelPosition=center;align=center;fontFamily=Helvetica;fontSize=12;strokeColor=#82b366;fillColor=#d5e8d4;" vertex="1" parent="Z0vzz4pzqoTiOcJpV1Gm-1">
          <mxGeometry x="-140" y="-110" width="200" height="40" as="geometry" />
        </mxCell>
        <mxCell id="Z0vzz4pzqoTiOcJpV1Gm-102" value="" style="edgeStyle=orthogonalEdgeStyle;html=1;startArrow=none;startFill=0;" edge="1" parent="Z0vzz4pzqoTiOcJpV1Gm-1" source="Z0vzz4pzqoTiOcJpV1Gm-103" target="Z0vzz4pzqoTiOcJpV1Gm-105">
          <mxGeometry relative="1" as="geometry" />
        </mxCell>
        <mxCell id="Z0vzz4pzqoTiOcJpV1Gm-103" value="Create User Modal&lt;br&gt;/userManagement" style="whiteSpace=wrap;html=1;rounded=1;fillColor=#fff2cc;strokeColor=#d6b656;" vertex="1" parent="Z0vzz4pzqoTiOcJpV1Gm-1">
          <mxGeometry x="-297.5" y="-120" width="135" height="60" as="geometry" />
        </mxCell>
        <mxCell id="Z0vzz4pzqoTiOcJpV1Gm-104" value="" style="edgeStyle=orthogonalEdgeStyle;html=1;startArrow=none;startFill=0;" edge="1" parent="Z0vzz4pzqoTiOcJpV1Gm-1" source="Z0vzz4pzqoTiOcJpV1Gm-105" target="Z0vzz4pzqoTiOcJpV1Gm-107">
          <mxGeometry relative="1" as="geometry" />
        </mxCell>
        <mxCell id="Z0vzz4pzqoTiOcJpV1Gm-105" value="Manager&lt;br&gt;Submits" style="verticalLabelPosition=middle;verticalAlign=top;html=1;shape=trapezoid;perimeter=trapezoidPerimeter;whiteSpace=wrap;size=0.23;arcSize=10;flipV=1;labelPosition=center;align=center;fontFamily=Helvetica;fontSize=12;strokeColor=#82b366;fillColor=#d5e8d4;" vertex="1" parent="Z0vzz4pzqoTiOcJpV1Gm-1">
          <mxGeometry x="-285" y="-20" width="110" height="40" as="geometry" />
        </mxCell>
        <mxCell id="Z0vzz4pzqoTiOcJpV1Gm-106" value="" style="edgeStyle=orthogonalEdgeStyle;html=1;startArrow=none;startFill=0;" edge="1" parent="Z0vzz4pzqoTiOcJpV1Gm-1" source="Z0vzz4pzqoTiOcJpV1Gm-107" target="Z0vzz4pzqoTiOcJpV1Gm-94">
          <mxGeometry relative="1" as="geometry" />
        </mxCell>
        <mxCell id="Z0vzz4pzqoTiOcJpV1Gm-107" value="HTTP/POST&lt;br&gt;/api/user&lt;br&gt;req.body.json{data}" style="shape=process;whiteSpace=wrap;html=1;backgroundOutline=1;fillColor=#f0a30a;strokeColor=#BD7000;fontColor=#000000;" vertex="1" parent="Z0vzz4pzqoTiOcJpV1Gm-1">
          <mxGeometry x="-130" y="-30" width="150" height="60" as="geometry" />
        </mxCell>
        <mxCell id="Z0vzz4pzqoTiOcJpV1Gm-108" style="edgeStyle=orthogonalEdgeStyle;html=1;entryX=0;entryY=0.5;entryDx=0;entryDy=0;startArrow=none;startFill=0;" edge="1" parent="Z0vzz4pzqoTiOcJpV1Gm-1" source="Z0vzz4pzqoTiOcJpV1Gm-109" target="Z0vzz4pzqoTiOcJpV1Gm-117">
          <mxGeometry relative="1" as="geometry">
            <Array as="points">
              <mxPoint x="-160" y="-140" />
              <mxPoint x="-160" y="-330" />
            </Array>
          </mxGeometry>
        </mxCell>
        <mxCell id="Z0vzz4pzqoTiOcJpV1Gm-109" value="Manager Selects&lt;br&gt;Reset Password" style="verticalLabelPosition=middle;verticalAlign=top;html=1;shape=trapezoid;perimeter=trapezoidPerimeter;whiteSpace=wrap;size=0.23;arcSize=10;flipV=1;labelPosition=center;align=center;fontFamily=Helvetica;fontSize=12;fontColor=#000000;strokeColor=#BD7000;fillColor=#f0a30a;" vertex="1" parent="Z0vzz4pzqoTiOcJpV1Gm-1">
          <mxGeometry x="-145" y="-160" width="150" height="40" as="geometry" />
        </mxCell>
        <mxCell id="Z0vzz4pzqoTiOcJpV1Gm-110" style="edgeStyle=orthogonalEdgeStyle;html=1;entryX=0;entryY=0.5;entryDx=0;entryDy=0;startArrow=none;startFill=0;" edge="1" parent="Z0vzz4pzqoTiOcJpV1Gm-1" source="Z0vzz4pzqoTiOcJpV1Gm-111" target="Z0vzz4pzqoTiOcJpV1Gm-117">
          <mxGeometry relative="1" as="geometry">
            <Array as="points">
              <mxPoint x="-160" y="-180" />
              <mxPoint x="-160" y="-330" />
            </Array>
          </mxGeometry>
        </mxCell>
        <mxCell id="Z0vzz4pzqoTiOcJpV1Gm-111" value="Manager Selects&lt;br&gt;Disable User" style="verticalLabelPosition=middle;verticalAlign=top;html=1;shape=trapezoid;perimeter=trapezoidPerimeter;whiteSpace=wrap;size=0.23;arcSize=10;flipV=1;labelPosition=center;align=center;fontFamily=Helvetica;fontSize=12;fontColor=#000000;strokeColor=#BD7000;fillColor=#f0a30a;" vertex="1" parent="Z0vzz4pzqoTiOcJpV1Gm-1">
          <mxGeometry x="-145" y="-200" width="150" height="40" as="geometry" />
        </mxCell>
        <mxCell id="Z0vzz4pzqoTiOcJpV1Gm-112" style="edgeStyle=elbowEdgeStyle;elbow=vertical;html=1;startArrow=none;startFill=0;" edge="1" parent="Z0vzz4pzqoTiOcJpV1Gm-1" source="Z0vzz4pzqoTiOcJpV1Gm-113" target="Z0vzz4pzqoTiOcJpV1Gm-115">
          <mxGeometry relative="1" as="geometry">
            <Array as="points">
              <mxPoint x="-77" y="-250" />
            </Array>
          </mxGeometry>
        </mxCell>
        <mxCell id="Z0vzz4pzqoTiOcJpV1Gm-113" value="Manager Selects&lt;br&gt;Edit User" style="verticalLabelPosition=middle;verticalAlign=top;html=1;shape=trapezoid;perimeter=trapezoidPerimeter;whiteSpace=wrap;size=0.23;arcSize=10;flipV=1;labelPosition=center;align=center;fontFamily=Helvetica;fontSize=12;strokeColor=#d6b656;fillColor=#fff2cc;" vertex="1" parent="Z0vzz4pzqoTiOcJpV1Gm-1">
          <mxGeometry x="-140" y="-240" width="150" height="40" as="geometry" />
        </mxCell>
        <mxCell id="Z0vzz4pzqoTiOcJpV1Gm-114" style="edgeStyle=elbowEdgeStyle;elbow=vertical;html=1;exitX=0;exitY=0.5;exitDx=0;exitDy=0;entryX=0;entryY=0.5;entryDx=0;entryDy=0;startArrow=none;startFill=0;" edge="1" parent="Z0vzz4pzqoTiOcJpV1Gm-1" source="Z0vzz4pzqoTiOcJpV1Gm-115" target="Z0vzz4pzqoTiOcJpV1Gm-117">
          <mxGeometry relative="1" as="geometry">
            <Array as="points">
              <mxPoint x="-160" y="-300" />
              <mxPoint x="-150" y="-320" />
              <mxPoint y="-330" />
            </Array>
          </mxGeometry>
        </mxCell>
        <mxCell id="Z0vzz4pzqoTiOcJpV1Gm-115" value="Edit User Modal&lt;br&gt;/userManagement" style="whiteSpace=wrap;html=1;rounded=1;fillColor=#f0a30a;strokeColor=#BD7000;fontColor=#000000;" vertex="1" parent="Z0vzz4pzqoTiOcJpV1Gm-1">
          <mxGeometry x="-132.5" y="-320" width="135" height="60" as="geometry" />
        </mxCell>
        <mxCell id="Z0vzz4pzqoTiOcJpV1Gm-116" value="" style="edgeStyle=orthogonalEdgeStyle;html=1;startArrow=none;startFill=0;" edge="1" parent="Z0vzz4pzqoTiOcJpV1Gm-1" source="Z0vzz4pzqoTiOcJpV1Gm-117" target="Z0vzz4pzqoTiOcJpV1Gm-119">
          <mxGeometry relative="1" as="geometry">
            <Array as="points">
              <mxPoint x="217" y="-320" />
            </Array>
          </mxGeometry>
        </mxCell>
        <mxCell id="Z0vzz4pzqoTiOcJpV1Gm-117" value="Manager&amp;nbsp;&lt;br&gt;Confirms/Submit" style="verticalLabelPosition=middle;verticalAlign=top;html=1;shape=trapezoid;perimeter=trapezoidPerimeter;whiteSpace=wrap;size=0.23;arcSize=10;flipV=1;labelPosition=center;align=center;fontFamily=Helvetica;fontSize=12;fontColor=#000000;strokeColor=#BD7000;fillColor=#f0a30a;" vertex="1" parent="Z0vzz4pzqoTiOcJpV1Gm-1">
          <mxGeometry x="-7.5" y="-350" width="150" height="40" as="geometry" />
        </mxCell>
        <mxCell id="Z0vzz4pzqoTiOcJpV1Gm-118" style="edgeStyle=orthogonalEdgeStyle;html=1;startArrow=none;startFill=0;" edge="1" parent="Z0vzz4pzqoTiOcJpV1Gm-1" source="Z0vzz4pzqoTiOcJpV1Gm-119">
          <mxGeometry relative="1" as="geometry">
            <mxPoint x="225" as="targetPoint" />
            <Array as="points">
              <mxPoint x="240" y="-260" />
              <mxPoint x="240" />
            </Array>
          </mxGeometry>
        </mxCell>
        <mxCell id="Z0vzz4pzqoTiOcJpV1Gm-119" value="HTTP/PATCH&lt;br&gt;/api/user/:id&lt;br&gt;req.body{data}" style="shape=process;whiteSpace=wrap;html=1;backgroundOutline=1;" vertex="1" parent="Z0vzz4pzqoTiOcJpV1Gm-1">
          <mxGeometry x="142.5" y="-310" width="150" height="60" as="geometry" />
        </mxCell>
        <mxCell id="ltqC82jdDxfd06jt5gRL-16" value="" style="edgeStyle=orthogonalEdgeStyle;rounded=1;orthogonalLoop=1;jettySize=auto;html=1;" edge="1" parent="Z0vzz4pzqoTiOcJpV1Gm-1" source="Z0vzz4pzqoTiOcJpV1Gm-121" target="Z0vzz4pzqoTiOcJpV1Gm-123">
          <mxGeometry relative="1" as="geometry" />
        </mxCell>
        <mxCell id="Z0vzz4pzqoTiOcJpV1Gm-121" value="Edit Tool Modal&lt;br&gt;/dashboard" style="whiteSpace=wrap;html=1;rounded=1;fillColor=#fff2cc;strokeColor=#d6b656;" vertex="1" parent="Z0vzz4pzqoTiOcJpV1Gm-1">
          <mxGeometry x="12.5" y="382" width="120" height="60" as="geometry" />
        </mxCell>
        <mxCell id="ltqC82jdDxfd06jt5gRL-15" style="edgeStyle=orthogonalEdgeStyle;rounded=1;orthogonalLoop=1;jettySize=auto;html=1;entryX=1;entryY=0.5;entryDx=0;entryDy=0;" edge="1" parent="Z0vzz4pzqoTiOcJpV1Gm-1" source="Z0vzz4pzqoTiOcJpV1Gm-123" target="ltqC82jdDxfd06jt5gRL-13">
          <mxGeometry relative="1" as="geometry" />
        </mxCell>
        <mxCell id="Z0vzz4pzqoTiOcJpV1Gm-123" value="User Confirms&lt;br&gt;Submit" style="verticalLabelPosition=middle;verticalAlign=top;html=1;shape=trapezoid;perimeter=trapezoidPerimeter;whiteSpace=wrap;size=0.23;arcSize=10;flipV=1;labelPosition=center;align=center;fontFamily=Helvetica;fontSize=12;strokeColor=#d6b656;fillColor=#fff2cc;" vertex="1" parent="Z0vzz4pzqoTiOcJpV1Gm-1">
          <mxGeometry x="-175" y="392" width="155" height="40" as="geometry" />
        </mxCell>
        <mxCell id="ltqC82jdDxfd06jt5gRL-7" style="edgeStyle=orthogonalEdgeStyle;rounded=1;orthogonalLoop=1;jettySize=auto;html=1;entryX=1;entryY=0.5;entryDx=0;entryDy=0;" edge="1" parent="Z0vzz4pzqoTiOcJpV1Gm-1" source="Z0vzz4pzqoTiOcJpV1Gm-125" target="Z0vzz4pzqoTiOcJpV1Gm-127">
          <mxGeometry relative="1" as="geometry" />
        </mxCell>
        <mxCell id="Z0vzz4pzqoTiOcJpV1Gm-125" value="User Selects&lt;br&gt;Mark Inactive" style="verticalLabelPosition=middle;verticalAlign=top;html=1;shape=trapezoid;perimeter=trapezoidPerimeter;whiteSpace=wrap;size=0.23;arcSize=10;flipV=1;labelPosition=center;align=center;fontFamily=Helvetica;fontSize=12;fontColor=#000000;strokeColor=#BD7000;fillColor=#f0a30a;" vertex="1" parent="Z0vzz4pzqoTiOcJpV1Gm-1">
          <mxGeometry x="170" y="517" width="155" height="40" as="geometry" />
        </mxCell>
        <mxCell id="ltqC82jdDxfd06jt5gRL-18" value="" style="edgeStyle=orthogonalEdgeStyle;rounded=1;orthogonalLoop=1;jettySize=auto;html=1;" edge="1" parent="Z0vzz4pzqoTiOcJpV1Gm-1" source="Z0vzz4pzqoTiOcJpV1Gm-127" target="ltqC82jdDxfd06jt5gRL-12">
          <mxGeometry relative="1" as="geometry" />
        </mxCell>
        <mxCell id="Z0vzz4pzqoTiOcJpV1Gm-127" value="Confirm Mark Inactive&lt;br&gt;/dashboard&lt;br&gt;#confirmInactiveModal" style="whiteSpace=wrap;html=1;rounded=1;fillColor=#f0a30a;fontColor=#000000;strokeColor=#BD7000;" vertex="1" parent="Z0vzz4pzqoTiOcJpV1Gm-1">
          <mxGeometry x="12.5" y="507" width="120" height="60" as="geometry" />
        </mxCell>
        <mxCell id="Z0vzz4pzqoTiOcJpV1Gm-128" value="Manager Context API Calls" style="swimlane;fontStyle=0;childLayout=stackLayout;horizontal=1;startSize=30;horizontalStack=0;resizeParent=1;resizeParentMax=0;resizeLast=0;collapsible=1;marginBottom=0;fillColor=#B3B3B3;opacity=60;swimlaneFillColor=#FFFFCC;" vertex="1" parent="Z0vzz4pzqoTiOcJpV1Gm-1">
          <mxGeometry x="-663.5" y="-330" width="307.5" height="120" as="geometry" />
        </mxCell>
        <mxCell id="Z0vzz4pzqoTiOcJpV1Gm-129" value="GET - /api/user - get all users to populate the table" style="text;strokeColor=none;fillColor=none;align=left;verticalAlign=middle;spacingLeft=4;spacingRight=4;overflow=hidden;points=[[0,0.5],[1,0.5]];portConstraint=eastwest;rotatable=0;opacity=30;" vertex="1" parent="Z0vzz4pzqoTiOcJpV1Gm-128">
          <mxGeometry y="30" width="307.5" height="30" as="geometry" />
        </mxCell>
        <mxCell id="Z0vzz4pzqoTiOcJpV1Gm-130" value="POST - /api/user - create a new user" style="text;strokeColor=none;fillColor=none;align=left;verticalAlign=middle;spacingLeft=4;spacingRight=4;overflow=hidden;points=[[0,0.5],[1,0.5]];portConstraint=eastwest;rotatable=0;opacity=30;" vertex="1" parent="Z0vzz4pzqoTiOcJpV1Gm-128">
          <mxGeometry y="60" width="307.5" height="30" as="geometry" />
        </mxCell>
        <mxCell id="Z0vzz4pzqoTiOcJpV1Gm-131" value="PUT - /api/user/:id - update user with :id" style="text;strokeColor=none;fillColor=none;align=left;verticalAlign=middle;spacingLeft=4;spacingRight=4;overflow=hidden;points=[[0,0.5],[1,0.5]];portConstraint=eastwest;rotatable=0;opacity=30;" vertex="1" parent="Z0vzz4pzqoTiOcJpV1Gm-128">
          <mxGeometry y="90" width="307.5" height="30" as="geometry" />
        </mxCell>
        <mxCell id="Z0vzz4pzqoTiOcJpV1Gm-132" value="User Context - API Calls" style="swimlane;fontStyle=0;childLayout=stackLayout;horizontal=1;startSize=30;horizontalStack=0;resizeParent=1;resizeParentMax=0;resizeLast=0;collapsible=1;marginBottom=0;fillColor=#B3B3B3;opacity=60;swimlaneFillColor=#CCE5FF;" vertex="1" parent="Z0vzz4pzqoTiOcJpV1Gm-1">
          <mxGeometry x="-826" y="-210" width="470" height="320" as="geometry" />
        </mxCell>
        <mxCell id="Z0vzz4pzqoTiOcJpV1Gm-133" value="GET - /api/tool  -  Returns a tool based on _id and serialNumber values in JSON body" style="text;strokeColor=none;fillColor=none;align=left;verticalAlign=middle;spacingLeft=4;spacingRight=4;overflow=hidden;points=[[0,0.5],[1,0.5]];portConstraint=eastwest;rotatable=0;opacity=30;" vertex="1" parent="Z0vzz4pzqoTiOcJpV1Gm-132">
          <mxGeometry y="30" width="470" height="30" as="geometry" />
        </mxCell>
        <mxCell id="Z0vzz4pzqoTiOcJpV1Gm-134" value="GET - /api/tools -  Return all tools" style="text;strokeColor=none;fillColor=none;align=left;verticalAlign=middle;spacingLeft=4;spacingRight=4;overflow=hidden;points=[[0,0.5],[1,0.5]];portConstraint=eastwest;rotatable=0;opacity=30;" vertex="1" parent="Z0vzz4pzqoTiOcJpV1Gm-132">
          <mxGeometry y="60" width="470" height="30" as="geometry" />
        </mxCell>
        <mxCell id="Z0vzz4pzqoTiOcJpV1Gm-135" value="GET - /api/tools/search - Returns one or more tools based on JSON body, in                                       order of _id, serialNumber,barcode, serviceAssignment, status, " style="text;strokeColor=none;fillColor=none;align=left;verticalAlign=middle;spacingLeft=4;spacingRight=4;overflow=hidden;points=[[0,0.5],[1,0.5]];portConstraint=eastwest;rotatable=0;opacity=30;whiteSpace=wrap;" vertex="1" parent="Z0vzz4pzqoTiOcJpV1Gm-132">
          <mxGeometry y="90" width="470" height="50" as="geometry" />
        </mxCell>
        <mxCell id="Z0vzz4pzqoTiOcJpV1Gm-136" value="POST - /api/tool  -  Create a new tool based in the JSON body" style="text;strokeColor=none;fillColor=none;align=left;verticalAlign=middle;spacingLeft=4;spacingRight=4;overflow=hidden;points=[[0,0.5],[1,0.5]];portConstraint=eastwest;rotatable=0;opacity=30;" vertex="1" parent="Z0vzz4pzqoTiOcJpV1Gm-132">
          <mxGeometry y="140" width="470" height="30" as="geometry" />
        </mxCell>
        <mxCell id="Z0vzz4pzqoTiOcJpV1Gm-137" value="PUT - /api/tool  -  Update an existing tool based on the _id value in the JSON body" style="text;strokeColor=none;fillColor=none;align=left;verticalAlign=middle;spacingLeft=4;spacingRight=4;overflow=hidden;points=[[0,0.5],[1,0.5]];portConstraint=eastwest;rotatable=0;opacity=30;" vertex="1" parent="Z0vzz4pzqoTiOcJpV1Gm-132">
          <mxGeometry y="170" width="470" height="30" as="geometry" />
        </mxCell>
        <mxCell id="Z0vzz4pzqoTiOcJpV1Gm-138" value="--------------------------------------------------------------------------------------------------------" style="text;strokeColor=none;fillColor=none;align=left;verticalAlign=middle;spacingLeft=4;spacingRight=4;overflow=hidden;points=[[0,0.5],[1,0.5]];portConstraint=eastwest;rotatable=0;opacity=30;" vertex="1" parent="Z0vzz4pzqoTiOcJpV1Gm-132">
          <mxGeometry y="200" width="470" height="30" as="geometry" />
        </mxCell>
        <mxCell id="Z0vzz4pzqoTiOcJpV1Gm-139" value="GET - /api/user - Returns the logged-in user&#39;s details " style="text;strokeColor=none;fillColor=none;align=left;verticalAlign=middle;spacingLeft=4;spacingRight=4;overflow=hidden;points=[[0,0.5],[1,0.5]];portConstraint=eastwest;rotatable=0;opacity=30;" vertex="1" parent="Z0vzz4pzqoTiOcJpV1Gm-132">
          <mxGeometry y="230" width="470" height="30" as="geometry" />
        </mxCell>
        <mxCell id="Z0vzz4pzqoTiOcJpV1Gm-140" value="PUT - /api/user - Updates the currently logged in user&#39;s password " style="text;strokeColor=none;fillColor=none;align=left;verticalAlign=middle;spacingLeft=4;spacingRight=4;overflow=hidden;points=[[0,0.5],[1,0.5]];portConstraint=eastwest;rotatable=0;opacity=30;" vertex="1" parent="Z0vzz4pzqoTiOcJpV1Gm-132">
          <mxGeometry y="260" width="470" height="30" as="geometry" />
        </mxCell>
        <mxCell id="Z0vzz4pzqoTiOcJpV1Gm-141" value="------------------------------------------------------------------------------------------------------" style="text;strokeColor=none;fillColor=none;align=left;verticalAlign=middle;spacingLeft=4;spacingRight=4;overflow=hidden;points=[[0,0.5],[1,0.5]];portConstraint=eastwest;rotatable=0;opacity=30;" vertex="1" parent="Z0vzz4pzqoTiOcJpV1Gm-132">
          <mxGeometry y="290" width="470" height="30" as="geometry" />
        </mxCell>
        <mxCell id="ltqC82jdDxfd06jt5gRL-17" value="" style="edgeStyle=orthogonalEdgeStyle;rounded=1;orthogonalLoop=1;jettySize=auto;html=1;" edge="1" parent="Z0vzz4pzqoTiOcJpV1Gm-1" source="Z0vzz4pzqoTiOcJpV1Gm-31" target="Z0vzz4pzqoTiOcJpV1Gm-29">
          <mxGeometry relative="1" as="geometry" />
        </mxCell>
        <mxCell id="Z0vzz4pzqoTiOcJpV1Gm-31" value="Search Modal&lt;br&gt;/dashboard" style="whiteSpace=wrap;html=1;rounded=1;fillColor=#fff2cc;strokeColor=#d6b656;" vertex="1" parent="Z0vzz4pzqoTiOcJpV1Gm-1">
          <mxGeometry x="12.5" y="445" width="120" height="60" as="geometry" />
        </mxCell>
        <mxCell id="ltqC82jdDxfd06jt5gRL-21" value="" style="edgeStyle=orthogonalEdgeStyle;rounded=1;orthogonalLoop=1;jettySize=auto;html=1;" edge="1" parent="Z0vzz4pzqoTiOcJpV1Gm-1" source="ltqC82jdDxfd06jt5gRL-12" target="ltqC82jdDxfd06jt5gRL-19">
          <mxGeometry relative="1" as="geometry" />
        </mxCell>
        <mxCell id="ltqC82jdDxfd06jt5gRL-12" value="User Confirms&lt;br&gt;Mark Inactive" style="verticalLabelPosition=middle;verticalAlign=top;html=1;shape=trapezoid;perimeter=trapezoidPerimeter;whiteSpace=wrap;size=0.23;arcSize=10;flipV=1;labelPosition=center;align=center;fontFamily=Helvetica;fontSize=12;fontColor=#000000;strokeColor=#BD7000;fillColor=#f0a30a;" vertex="1" parent="Z0vzz4pzqoTiOcJpV1Gm-1">
          <mxGeometry x="-175" y="517" width="155" height="40" as="geometry" />
        </mxCell>
        <mxCell id="ltqC82jdDxfd06jt5gRL-26" style="edgeStyle=orthogonalEdgeStyle;rounded=1;orthogonalLoop=1;jettySize=auto;html=1;entryX=0;entryY=0.75;entryDx=0;entryDy=0;" edge="1" parent="Z0vzz4pzqoTiOcJpV1Gm-1" source="ltqC82jdDxfd06jt5gRL-13" target="Z0vzz4pzqoTiOcJpV1Gm-14">
          <mxGeometry relative="1" as="geometry">
            <Array as="points">
              <mxPoint x="-390" y="412" />
              <mxPoint x="-390" y="285" />
            </Array>
          </mxGeometry>
        </mxCell>
        <mxCell id="ltqC82jdDxfd06jt5gRL-13" value="HTTP/PATCH&lt;br&gt;/api/tool/submit" style="shape=process;whiteSpace=wrap;html=1;backgroundOutline=1;fillColor=#fff2cc;strokeColor=#d6b656;" vertex="1" parent="Z0vzz4pzqoTiOcJpV1Gm-1">
          <mxGeometry x="-360" y="392" width="160" height="40" as="geometry" />
        </mxCell>
        <mxCell id="ltqC82jdDxfd06jt5gRL-28" style="edgeStyle=orthogonalEdgeStyle;rounded=1;orthogonalLoop=1;jettySize=auto;html=1;entryX=0;entryY=0.75;entryDx=0;entryDy=0;" edge="1" parent="Z0vzz4pzqoTiOcJpV1Gm-1" source="ltqC82jdDxfd06jt5gRL-19" target="Z0vzz4pzqoTiOcJpV1Gm-14">
          <mxGeometry relative="1" as="geometry">
            <Array as="points">
              <mxPoint x="-390" y="537" />
              <mxPoint x="-390" y="285" />
            </Array>
          </mxGeometry>
        </mxCell>
        <mxCell id="ltqC82jdDxfd06jt5gRL-19" value="HTTP/PATCH&lt;br&gt;/api/tool/submit" style="shape=process;whiteSpace=wrap;html=1;backgroundOutline=1;fillColor=#f0a30a;strokeColor=#BD7000;fontColor=#000000;" vertex="1" parent="Z0vzz4pzqoTiOcJpV1Gm-1">
          <mxGeometry x="-360" y="517" width="160" height="40" as="geometry" />
        </mxCell>
      </root>
    </mxGraphModel>
  </diagram>
</mxfile>
